/* XPM */
static char *Chest[] = {
/* columns rows colors chars-per-pixel */
"64 64 196 2 ",
"   c #1E1F1B",
".  c #22241C",
"X  c #2B231E",
"o  c #292C1F",
"O  c #2B2A28",
"+  c #352C22",
"@  c #312E2B",
"#  c #2C3020",
"$  c #33322D",
"%  c #353533",
"&  c #3A3B37",
"*  c #3C3C3C",
"=  c #393531",
"-  c #412F23",
";  c #48352B",
":  c #563B29",
">  c #5C3C30",
",  c #483D33",
"<  c #3F4237",
"1  c #434C29",
"2  c #5B462D",
"3  c #49532C",
"4  c #4E5A2D",
"5  c #47522B",
"6  c #48443E",
"7  c #5A4636",
"8  c #4E5637",
"9  c #545D3C",
"0  c #505C2E",
"q  c #6A472E",
"w  c #6D4B35",
"e  c #664636",
"r  c #73533C",
"t  c #647536",
"y  c #677938",
"u  c #687B38",
"i  c #67773B",
"p  c #444443",
"a  c #4B4B4A",
"s  c #484943",
"d  c #594740",
"f  c #52524D",
"g  c #565652",
"h  c #5A5A54",
"j  c #5D5D5B",
"k  c #654D42",
"l  c #62534B",
"z  c #665345",
"x  c #785A44",
"c  c #72594B",
"v  c #765946",
"b  c #6B5D54",
"n  c #645B51",
"m  c #755F54",
"M  c #5D6249",
"N  c #5A6244",
"B  c #626D43",
"V  c #79614F",
"C  c #6D7C43",
"Z  c #66675C",
"A  c #79675C",
"S  c #6D7559",
"D  c #656563",
"F  c #696967",
"G  c #6C6C6B",
"H  c #686460",
"J  c #756C65",
"K  c #7C6D65",
"L  c #736A66",
"P  c #72726C",
"I  c #7E746E",
"U  c #737372",
"Y  c #787873",
"T  c #7B7B7A",
"R  c #7A7571",
"E  c #815E38",
"W  c #836441",
"Q  c #836E5D",
"!  c #897259",
"~  c #A77843",
"^  c #A97E4E",
"/  c #AA7F50",
"(  c #83766C",
")  c #86786A",
"_  c #837A73",
"`  c #6D8039",
"'  c #71853C",
"]  c #73883C",
"[  c #7C923F",
"{  c #7E9542",
"}  c #829942",
"|  c #809643",
" . c #B7844C",
".. c #B8854D",
"X. c #BE8C54",
"o. c #BA8D5B",
"O. c #B58753",
"+. c #BF915E",
"@. c #8CA646",
"#. c #8EA847",
"$. c #90AB47",
"%. c #93AE48",
"&. c #95B149",
"*. c #99B54A",
"=. c #9DBA4C",
"-. c #A0BF4E",
";. c #8F8475",
":. c #82827B",
">. c #8D847C",
",. c #8E887F",
"<. c #90897E",
"1. c #B18F67",
"2. c #B8946B",
"3. c #B59570",
"4. c #AC967B",
"5. c #C5945D",
"6. c #C29562",
"7. c #C69866",
"8. c #CC9B65",
"9. c #CB9D6A",
"0. c #C09F79",
"q. c #C29C71",
"w. c #D0A16D",
"e. c #C8A37A",
"r. c #D1A473",
"t. c #D4A979",
"y. c #D3A877",
"u. c #CEA16F",
"i. c #A3C24E",
"p. c #AACB52",
"a. c #B1D354",
"s. c #858582",
"d. c #8C8A84",
"f. c #8D8D88",
"g. c #918B84",
"h. c #968E8A",
"j. c #93938D",
"k. c #99948E",
"l. c #959086",
"z. c #959592",
"x. c #9A9A92",
"c. c #9B9B9A",
"v. c #9C9593",
"b. c #AB9D88",
"n. c #B49F83",
"m. c #A49F9D",
"M. c #BBA68E",
"N. c #A4A39D",
"B. c #ADA496",
"V. c #BAA791",
"C. c #A5A4A1",
"Z. c #A8A7A2",
"A. c #ACACA6",
"S. c #ADADAA",
"D. c #B3AEA9",
"F. c #B1B1AD",
"G. c #BFB8AD",
"H. c #B5B5B2",
"J. c #BBBBB6",
"K. c #BDBDBB",
"L. c #C7A681",
"P. c #CAA985",
"I. c #CCAB86",
"U. c #D3AF87",
"Y. c #D2B18C",
"T. c #C4AE95",
"R. c #C9B39C",
"E. c #CDB293",
"W. c #DCBD9B",
"Q. c #D8B894",
"!. c #C5B5A0",
"~. c #D2BEA6",
"^. c #C4BCB2",
"/. c #D9C4AD",
"(. c #C1C1BD",
"). c #CCC3BA",
"_. c #D8C9B8",
"`. c #E1CBB3",
"'. c #E5D1BC",
"]. c #C5C5C4",
"[. c #C8C8C7",
"{. c #CBCBCB",
"}. c #D4CDC4",
"|. c #D8CDC0",
" X c #D1D0CE",
".X c #DBD2C8",
"XX c #D4D4D3",
"oX c #DBDBDB",
"OX c #DBD8D4",
"+X c #E3D9CE",
"@X c #E5DDD3",
"#X c #E6E1DC",
"$X c #ECE6DE",
"%X c #E9E1D7",
"&X c #E3E3E2",
"*X c #EBEBEB",
/* pixels */
"a.a.a.a.a.a.a.a.a.a.a.a.a.a.a.a.a.a.a.a.a.a.a.a.a.a.a.a.a.a.a.a.a.a.a.a.a.a.a.a.a.a.a.a.a.a.a.a.a.a.a.a.a.a.a.a.a.a.a.a.a.a.a.a.",
"a.a.a.a.a.a.a.a.a.a.a.a.a.a.a.a.a.a.a.a.a.a.a.a.a.a.a.a.a.a.a.a.a.a.a.a.a.a.a.a.a.a.a.a.a.a.a.a.a.a.a.a.a.a.a.a.a.a.a.a.a.a.a.a.",
"a.a.a.a.a.a.a.a.a.a.a.a.a.a.a.a.a.a.a.a.a.a.a.a.a.a.a.a.a.a.a.a.a.a.a.a.a.a.a.a.a.a.a.a.a.a.a.a.a.a.a.a.a.a.a.a.a.a.a.a.a.a.a.a.",
"a.a.a.a.a.a.a.a.a.a.a.a.a.a.a.a.a.a.a.a.a.a.a.a.a.a.a.a.a.a.a.a.a.a.a.a.a.a.a.a.a.a.a.a.a.a.a.a.a.a.a.a.a.a.a.a.a.a.a.a.a.a.a.a.",
"a.a.a.a.a.a.a.a.a.a.a.a.a.a.a.a.a.a.a.a.a.a.a.a.a.a.a.a.a.a.a.a.a.a.a.a.a.a.a.a.a.a.a.a.a.a.a.a.a.a.a.a.a.a.a.a.a.a.a.a.a.a.a.a.",
"a.a.a.a.a.a.a.a.a.a.a.a.a.a.a.a.a.a.a.a.a.a.a.a.a.a.a.a.a.a.a.a.a.a.a.a.a.a.a.a.a.a.a.a.a.a.a.a.a.a.a.a.a.a.a.a.a.a.a.a.a.a.a.a.",
"a.a.a.a.a.a.a.a.a.a.a.a.a.a.a.a.a.a.a.a.a.a.a.a.a.a.a.a.a.a.a.a.a.a.a.a.a.a.a.a.a.a.a.a.a.a.a.a.a.a.a.a.a.a.a.a.a.a.a.a.a.a.a.a.",
"a.a.a.a.a.a.a.a.a.a.a.a.a.a.a.a.a.a.a.a.a.a.a.a.a.a.a.a.a.a.a.a.a.a.a.a.a.a.a.a.a.a.a.a.a.a.a.a.a.a.a.a.a.a.a.a.a.a.a.a.a.a.a.a.",
"a.a.a.a.a.a.a.a.a.a.a.a.a.a.a.a.a.a.a.a.a.a.a.a.a.a.a.a.a.a.a.a.a.a.a.a.a.a.a.a.a.a.a.a.a.a.a.a.a.a.a.a.a.a.a.a.a.a.a.a.a.a.a.a.",
"a.a.a.a.a.a.a.a.a.a.a.a.a.a.a.a.a.a.a.a.a.a.a.a.a.a.a.a.a.a.a.a.a.a.a.a.a.a.a.a.a.a.a.a.a.a.a.a.a.a.a.a.a.a.a.a.a.a.a.a.a.a.a.a.",
"a.a.a.a.a.a.a.a.a.a.a.a.a.a.a.a.a.a.a.a.a.a.a.a.a.a.a.a.a.a.a.a.a.a.a.a.a.a.a.a.a.a.a.a.a.a.a.a.a.a.a.a.a.a.a.a.a.a.a.a.a.a.a.a.",
"a.a.a.a.a.a.a.a.a.a.a.a.a.a.a.a.a.a.a.a.a.a.a.a.a.a.a.a.a.a.a.a.a.a.a.a.a.a.a.a.a.a.a.a.a.a.a.a.a.a.a.a.a.a.a.a.a.a.a.a.a.a.a.a.",
"a.a.a.a.a.a.a.a.a.a.a.a.a.a.a.a.a.a.a.a.a.a.a.a.a.a.a.a.a.a.a.a.a.a.a.a.a.a.a.a.a.a.a.a.a.a.a.a.a.a.a.a.a.a.a.a.a.a.a.a.a.a.a.a.",
"a.a.a.a.a.a.a.a.a.a.a.a.a.a.a.a.a.a.a.a.a.a.a.a.a.a.a.a.a.a.a.a.a.a.a.a.a.a.a.a.a.a.a.a.a.a.a.a.a.a.a.a.a.a.a.a.a.a.a.a.a.a.a.a.",
"a.a.a.a.a.a.a.a.a.a.p.i.=.&.%.%.%.%.%.%.%.%.%.%.%.%.%.%.%.%.%.%.%.%.%.%.%.%.%.%.%.%.%.%.%.%.%.%.%.%.&.-.i.p.a.a.a.a.a.a.a.a.a.a.",
"a.a.a.a.a.a.a.a.a.a.i.%.} ' ` ` ` ` ` ` ` ` ` ` ` ` ` ` ` ` ` ` ` ` ` ` ` ` ` ` ` ` ` ` ` ` ` ` ` ` ' } %.i.a.a.a.a.a.a.a.a.a.a.",
"a.a.a.a.a.a.a.a.a.a.=.{ y 4 5 3 3 3 3 3 3 3 3 3 3 3 3 3 3 3 3 3 3 3 3 3 3 3 3 3 3 3 3 3 3 3 3 3 5 3 0 t { *.a.a.a.a.a.a.a.a.a.a.",
"a.a.a.a.a.a.a.a.a.a.%.' 4 o . . . . . . . . . . . . . . . . . . . . . . . . . . . . . . . . . . . . # 0 { *.a.a.a.a.a.a.a.a.a.a.",
"a.a.a.a.a.a.p.i.=.&.{ { 9 < * * * * * = = + + + # + + + + + + + + + + + + + + + + + + $ = & * * * * 1 9 u } &.=.i.p.a.a.a.a.a.a.",
"a.a.a.a.a.a.i.$.{ ' B S S G G G G G D h k 2 2 2 2 q 2 2 2 2 2 2 2 2 2 2 2 2 2 2 2 2 7 k n H G G G G G S S C ] } %.i.a.a.a.a.a.a.",
"a.a.a.a.a.a.*.} y 4 N S T z.c.c.c.c.l.;.! r E E E E E E E E E E E E E E E E E E E E W ! ;.g.c.c.c.c.z.{ U h 4 y } =.a.a.a.a.a.a.",
"a.a.a.a.a.a.$.` 3 # s P c.].].[.[.[.^.V.3.^ ~  .~ ~ ~ ~ ~ ~ ~ ~ ~ ~ ~ ~ ~ ~ ~ ~ ~ ~  .3.M.J.[.[.[.].K.c.G p # 4 ' %.a.a.a.a.a.a.",
"a.a.p.i.=.&.| i 8 $ g T S.XXoX&XoXoX_.!.e.o. . . ... . . . . . ... ..... . . . . . .o.0.R..XoXoXoXoXXXC.T g % 8 C { =.=.i.p.a.a.",
"a.a.i.%.} ' C B g g G z.H.oX&X&X&X&X}./.L.5.X.X...5...5...5.5.5.5.X.X.5.X.X.X.5.X.5.2.P./..X&X&X&X&XoXH.z.G f g N C ] } %.-.a.a.",
"a.a.*.} t 4 0 M S P d.Z.].&X*X*X*X*X@X/.U.7.6.5.5.5.5.5.5.5.5.5.5.5.5.5.5.5.5.5.5.5.7.Y./.@X*X*X*X*X&X(.Z.f.P Z M 9 4 u } =.a.a.",
"a.a.#.` 4 o < h P f.C.K. X*X*X*X*X*X%X`.Q.r.8.8.9.8.w.8.w.8.8.8.8.5.8.8.8.8.8.w.8.8.y.Q._.%X*X*X*X*X*X XJ.N.<.P h < o 4 ` $.a.a.",
"a.a.@.y 1   % h { x.S.(.XX*X*X*X*X*X%X/.Q.9.8.5.8.5.8.8.8.8.5.5.5.w.8.8.8.8.8.8.8.8.u.Q.`.%X*X*X*X*X*XXX(.S.x.P g % . 1 y #.a.a.",
"a.a.@.y <   % h T x.A.(.XX&X*X&X*X*X+X/.U.8.5.5.5.5.5.5.5.5.5.5.5.5.5.5.5.5.5.5.5.5.7.Y./.+X*X*X*X*X&X X(.A.x.Y g = . 1 y #.a.a.",
"a.a.@.y 1   % h T c.A.K.{.oX&X&X&XoX.X~.e.+.X.X.5.....5...X...5.5... .5.5.5. .5.X.X.5.L.~..X&X&X&X&XoX[.J.A.x.Y h =   1 u #.a.a.",
"a.a.@.y <   % h U c.A.J.].oXoXoXoXoX}.R.e.o. . . . . . . . . . . . . . .~  . .~  . .O.e.R.[.oXoXoXoXXX[.J.A.x.P h %   1 y #.a.a.",
"a.a.@.y 1   = h T m.S.K.].XXXXXXXXXX).R.3.X. . . . . . . . . . . . . . . . . . . . .o.0.R.).XXXXXXXXXX].J.S.N.T h %   1 u #.a.a.",
"a.a.@.y <   < Z s.F.K.K.]. X X{. X{.).R.e.2.X.X.5...5...5...5...5... .5...5...5.X.X.2.0.R.). X X X X{.[.K.J.A.s.D &   1 y #.a.a.",
"a.a.{ ` <   * G z.K.].].[.[.[.[.{.{.^.R.L.7.5.5.5.5.5.5.5.5.5.5.5.5.5.5.5.5.5.5.5.5.7.L.R.).[.[.{.[.[.[.{.].K.z.D *   1 ` @.a.a.",
"a.a.@.` <   p U c.{.{.{.[.].].].].].^.R.P.w.8.8.8.8.8.8.8.8.8.8.8.5.8.8.8.8.8.8.8.8.u.L.R.(.].[.].].].[.{.{.[.c.G p . < ` @.a.a.",
"a.a.$.` <   a U C. X X{.].(.(.J.K.K.!.T.L.9.9.w.w.t.t.t.t.t.I.r.w.y.t.t.t.t.y.w.w.8.u.L.T.G.J.J.K.K.(.].{.{.{.C.U p   < ` @.a.a.",
"a.a.{ t <   p U C.{. X[.(.H.H.H.H.H.D.M.0.6.8.e.U.W.W.W.W.W.W.W.W.W.W.W.W.W.W.t.y.7.7.0.M.D.H.H.H.H.H.K.{.XX{.c.U p   < ` @.a.a.",
"a.a.@.` < . < T C.{.{.].J.A.A.A.S.Z.B.n.3.5.7.P.Q.`.'.'.'.'.'.'.'.'.'.'.'.'.`.W.e.7.+.3.n.B.A.A.S.S.F.J.(. X XC.P <   1 t $.a.a.",
"a.a.{ ` <   < { C.XX{.K.F.N.N.N.m.m.v.n.6./ 6.P./.%X$X$X$X*X$X$X$X$X$X$X$X$X%X/.I.+.O.1.4.b.N.N.N.N.N.F.(. X Xc.P <   1 ` { a.a.",
"a.a.$.` <   p U C.XX{.[.H.A.C.C.Z.Z.B.4.3.o.q.R._.$X*X*X*X*X*X*X*X*X*X*X*X*X%X`.E.2.o.3.b.B.N.A.N.A.A.H.(. X XC.U p   1 ` @.a.a.",
"a.a.{ ` <   p T C.oXoX X].K.J.K.^.H.^.!.T.I.E.~.|.OX#X#XoX&X&X&X&X&XoX&X&X&X@X`./.E.P.T.G.G.J.J.J.J.J.]. XoXXXA.U p   1 ` $.a.a.",
"a.a.@.` <   < { S.oX&XoXXXXX X X{. X}.}._._._._. XXXXXXXXXXXXXXXXXXXXXXXXXXXXX X|.~.~.|._. X X XXX{.XXXXoX&XoXS.{ a   < ` @.a.a.",
"a.a.{ t < . a s.H.*X*X*X*X&X&X&X&X&X&X@X@X@X@XOX X{.[.[.{.{.[.[.[.[.[.{.[.{.{. XOX+X#X&X#X#X&X&X&X&X&X&X*X*X&XH.T a   < ` @.a.a.",
"a.a.@.` <   a T S.&X*X*X*X*X&X*X*X*X*X*X*X*X&XoX{.[.K.K.H.H.H.H.H.H.H.K.K.K.]. XOX&X*X*X*X*X*X*X*X*X*X*X*X*X&XS.T p   < ` $.a.a.",
"a.a.@.` <   p U m. XXXXXXXXXXXXXXXXXXXXXXXXX{.{.[.].K.F.m.v.v.h.h.j.z.C.S.K.].[.{.XXXXXXXXXXXXXXXXXXXXXXXXXX{.c.U p   * t @.a.a.",
"a.a.{ ` <   < Z f.K.K.^.(.(.(.K.(.(.(.K.^.K.(.(.(.].H.m.g.( L K K K ( h.m.H.(.(.].K.^.(.(.(.(.(.(.(.(.(.K.].H.f.Z < . < ` @.a.a.",
"a.a.%.` < . < j s.A.S.A.A.A.A.A.A.A.A.A.S.S.S.H.K.K.S.h.I n d 7 d d n ( h.H.K.K.H.D.A.D.A.S.A.A.A.A.A.A.S.C.C.s.h < . < t @.a.a.",
"a.a.{ ] < o < h U f.c.c.x.x.x.c.x.x.x.x.x.j.N.N.F.K.Z.d.L d ; ; ; ; d L h.S.K.F.Z.m.v.m.v.v.x.x.x.x.c.z.c.z.f.U M < # 3 ` $.a.a.",
"a.a.*.[ ` 4 9 M D G T { ,.j.j.j.j.j.f.,.>.;.<.k.m.F.Z.h.I b l l l g b ( h.Z.S.m.v._ _ _ d.g.j.j.j.j.j.s.s.{ P Z M 8 4 t { *.a.a.",
"a.a.i.%.{ ] ` B N f j F ' s.s.s.s.s.s._ K A Q >.v.C.C.k.>.R J K J J I ,.j.B.N.k._ Q L K _ s.s.s.s.s.s.T F j f M B C ] { %.i.a.a.",
"a.a.p.i.-.&.{ t < % p g U T T T :.T U L b k c ( >.v.m.v.j.d.d.d.d.<.d.k.v.N.m.>.( c k b L U :.T { s.T D g p % s i { &.=.i.p.a.a.",
"a.a.a.a.a.a.{ ` 5 . # p j U T T T U L b k > e m ) l.x.x.x.b.x.x.x.x.x.x.v.x.l.) m e > k b L Y T T T U j p O . 1 u $.a.a.a.a.a.a.",
"a.a.a.a.a.a.%.` < . < p D T s.s.:.s.R A z > w c Q _ ;.;.;.;.;.>.;.;.;.;.;.;._ A c e e z A R s.:.T T T D a @ . 5 u $.a.a.a.a.a.a.",
"a.a.a.a.a.a.&.` <   % a G s.f.f.f.d.:.A c e w r m Q ! Q Q Q Q Q ! Q Q ) Q Q Q v k w e v A :.f.f.f.f.s.G a % . 1 u $.a.a.a.a.a.a.",
"a.a.a.a.a.a.{ ` <   % g U f.z.z.j.j.,.) m w q w r r x x x x x x x x x x x x x r w w w m ( ,.x.j.z.c.f.G a % . 1 u $.a.a.a.a.a.a.",
"a.a.a.a.a.a.{ ` 5   % g U f.z.z.x.x.>.) V w q q q q q q q q q q q q q q q q q q q e w W ) ,.x.v.z.z.f.G g %   5 u $.a.a.a.a.a.a.",
"a.a.a.a.a.a.&.` 1   O p j U T U Y R J Z e 2 : : : : : : : : : : : : : : : : : : : > > k b J Y R U T U j p O   1 u $.a.a.a.a.a.a.",
"a.a.a.a.a.a.{ ` 1 . . < < g g g g h f 6 , - - - - - - - - - - - - - - - - - - - - - - 1 6 f g g g g f 6 % O   1 ` $.a.a.a.a.a.a.",
"a.a.a.a.a.a.$.` 1     o O % % % = = $ @ O + X X X X X X X X X X X X X X X X X X . . o + @ = = = % % % # O   . 5 u #.a.a.a.a.a.a.",
"a.a.a.a.a.a.$.` 5 .     . .                             .                       .     .         . . .       . 5 ` $.a.a.a.a.a.a.",
"a.a.a.a.a.a.*.[ t 5 1 1 1 5 < < 1 1 1 1 1 1 1 1 1 1 1 1 1 1 1 1 1 1 1 1 1 1 1 1 1 1 1 < 1 1 1 1 1 < 1 1 < < 5 t { *.a.a.a.a.a.a.",
"a.a.a.a.a.a.-.@.[ ` ` ` ` ` ` t u u u u u u u u u u u u u u u u u u u u u u u u ` t ` y t ` t ` ` ` t ` u u u { $.-.a.a.a.a.a.a.",
"a.a.a.a.a.a.p.-.&.$.{ @.@.@.@.@.@.#.#.#.#.#.@.#.@.$.#.@.#.#.@.#.@.#.@.#.#.#.#.#.#.#.@.@.@.#.@.@.@.@.@.@.#.#.$.*.-.p.a.a.a.a.a.a.",
"a.a.a.a.a.a.a.a.a.a.a.a.a.a.a.a.a.a.a.a.a.a.a.a.a.a.a.a.a.a.a.a.a.a.a.a.a.a.a.a.a.a.a.a.a.a.a.a.a.a.a.a.a.a.a.a.a.a.a.a.a.a.a.a.",
"a.a.a.a.a.a.a.a.a.a.a.a.a.a.a.a.a.a.a.a.a.a.a.a.a.a.a.a.a.a.a.a.a.a.a.a.a.a.a.a.a.a.a.a.a.a.a.a.a.a.a.a.a.a.a.a.a.a.a.a.a.a.a.a."
};
