/* XPM */
static char *Chest[] = {
/* columns rows colors chars-per-pixel */
"16 16 12 1 ",
"  c None",
". c gray10",
"X c #452E25",
"o c #58362A",
"O c #6E492F",
"+ c #767676",
"@ c #B38047",
"# c #D09F69",
"$ c #9E9E96",
"% c #C1C1C1",
"& c #D7D7D7",
"* c gray94",
/* pixels */
"                ",
"                ",
"                ",
"                ",
"   ..........   ",
"  .&&@@@@@@&&.  ",
" .$**######**$. ",
" .$&&@@@@@@&&$. ",
" .&%%######%%&. ",
" .&$$@****@$$&. ",
" .****%%%%****. ",
" .$$$$%XX%$$$$. ",
"  .++o$$$$o++.  ",
"  .$$OOOOOO$$.  ",
"  ............  ",
"                "
};
