/* XPM */
static char *Portal[] = {
/* columns rows colors chars-per-pixel */
"16 16 9 1 ",
"  c None",
". c #373737",
"X c #717171",
"o c #AE69F0",
"O c #989898",
"+ c #BBBDC0",
"@ c #C58DFF",
"# c #F1B6FF",
"$ c #D7DADE",
/* pixels */
"................",
".++++++++++++++.",
".++++++++++++++.",
".++++++++++++++.",
".++++++++++++++.",
".$$$$$$$$$$$$$$.",
".OOOOOOOOOOOOOO.",
".OOOOOOOOOOOOOO.",
"..XX........XX..",
" .OO.o@##@o.OO. ",
" .OO.@####@.OO. ",
" .OO.##@@##.OO. ",
" .OO.##@@##.OO. ",
" .OO.@####@.OO. ",
" .OO.o@##@o.OO. ",
"                "
};
