/* XPM */
static char *Portal[] = {
/* columns rows colors chars-per-pixel */
"64 64 175 2 ",
"   c #373737",
".  c #393939",
"X  c #383739",
"o  c #3E4038",
"O  c #42463A",
"+  c #464A3A",
"@  c #494E3B",
"#  c #4D543C",
"$  c #525A3D",
"%  c #5B653F",
"&  c #3F3B42",
"*  c #423D45",
"=  c #463E4E",
"-  c #434344",
";  c #494949",
":  c #4C4451",
">  c #4F415D",
",  c #51425F",
"<  c #525252",
"1  c #5A5B5B",
"2  c #595D47",
"3  c #5F674A",
"4  c #687543",
"5  c #676F52",
"6  c #747C5F",
"7  c #687448",
"8  c #574469",
"9  c #5F5F60",
"0  c #5E4973",
"q  c #5D4772",
"w  c #614D75",
"e  c #654C7D",
"r  c #655377",
"t  c #6C5A77",
"y  c #695679",
"u  c #715E78",
"i  c #5F6061",
"p  c #626262",
"a  c #6B6B6B",
"s  c #71686D",
"d  c #736077",
"f  c #756179",
"g  c #757575",
"h  c #7A7B7C",
"j  c #777878",
"k  c #728245",
"l  c #79884D",
"z  c #7B8366",
"x  c #809549",
"c  c #849A49",
"v  c #889F4B",
"b  c #849457",
"n  c #91AA4D",
"m  c #98B34E",
"M  c #94AD51",
"N  c #9BAE5D",
"B  c #9DB659",
"V  c #9AB356",
"C  c #8FA84C",
"Z  c #A0BE50",
"A  c #A3BC5F",
"S  c #8D9D60",
"D  c #878F72",
"F  c #8E9679",
"G  c #96917D",
"H  c #868A65",
"J  c #97A76A",
"K  c #A4B865",
"L  c #A4B477",
"P  c #ACB576",
"I  c #B1B87F",
"U  c #A4C351",
"Y  c #A8C852",
"T  c #B1D354",
"R  c #ABC467",
"E  c #6B5482",
"W  c #6F5A83",
"Q  c #745E83",
"!  c #765198",
"~  c #674F80",
"^  c #7A6383",
"/  c #7E6883",
"(  c #7E7F80",
")  c #7D56A3",
"_  c #7F5AA3",
"`  c #887191",
"'  c #815DA5",
"]  c #8459AE",
"[  c #8A5EB5",
"{  c #8664A9",
"}  c #8B6AAB",
"|  c #8461A6",
" . c #9C7AAB",
".. c #9573AB",
"X. c #8D68B3",
"o. c #9975B6",
"O. c #906FAA",
"+. c #A27DB6",
"@. c #A07EAA",
"#. c #905DC1",
"$. c #9C64D3",
"%. c #A269D9",
"&. c #A673D9",
"*. c #AA7ADC",
"=. c #A470D7",
"-. c #A86FE1",
";. c #AD77E4",
":. c #B27FE7",
">. c #B16DF2",
",. c #B675F5",
"<. c #BA7BF7",
"1. c #BD7FF9",
"2. c #7F8082",
"3. c #828383",
"4. c #8C8C8C",
"5. c #868789",
"6. c #939393",
"7. c #989898",
"8. c #969799",
"9. c #A69896",
"0. c #9EA689",
"q. c #9AA285",
"w. c #B4BD80",
"e. c #9C9EA0",
"r. c #A380AB",
"t. c #B19EA6",
"y. c #AE88B6",
"u. c #AA84B6",
"i. c #9FA1A3",
"p. c #A2A3A3",
"a. c #A7A9AC",
"s. c #B6A4A9",
"d. c #BAACAC",
"f. c #BEB1AD",
"g. c #AFB1B4",
"h. c #B2B3B5",
"j. c #ADAFB2",
"k. c #C7B9AD",
"l. c #BBC581",
"z. c #C2CC81",
"x. c #D2C3AD",
"c. c #B084CE",
"v. c #B688DB",
"b. c #BB95D5",
"n. c #AE80DC",
"m. c #BBBDC0",
"M. c #BE80F9",
"N. c #BA88E9",
"B. c #C393DE",
"V. c #CC9BDD",
"C. c #D09FDF",
"Z. c #C9A4D7",
"A. c #D2A1DE",
"S. c #D9B5D7",
"D. c #E2BDD7",
"F. c #C995E9",
"G. c #C184FA",
"H. c #C58CFE",
"J. c #CA8EFB",
"K. c #CC93FF",
"L. c #D59BFF",
"P. c #D89FFF",
"I. c #D297FE",
"U. c #DDA8E9",
"Y. c #D8A3E9",
"T. c #DCA3FF",
"R. c #E1A7FF",
"E. c #E4AAFF",
"W. c #E9AEFF",
"Q. c #EDB2FF",
"!. c #F1B6FF",
"~. c #C2C4C7",
"^. c #C4C6CA",
"/. c #CBCED1",
"(. c #D2D5D9",
/* pixels */
"T T T T T T T T T T T T T T T T T T T T T T T T T T T T T T T T T T T T T T T T T T T T T T T T T T T T T T T T T T T T T T T T ",
"T T T T T T T T T T T T T T T T T T T T T T T T T T T T T T T T T T T T T T T T T T T T T T T T T T T T T T T T T T T T T T T T ",
"T T T T T T T T T T T T T T T T T T T Y T T T T T T T T T T Y Y T T T T T T T T T T T Y T T T Y T T T T T T T T T T T T T T T T ",
"T T                                   & o               X X X   X o     o       X X X X X X o         o                         ",
"T T   o ; < 1 1 1 1 1 1 1 1 1 1 1 < 1 < 1 1 1 1 1 1 < 1 1 1 1 1 1 < 1 < < < 1 1 < < 1 < 1 < 1 < 1 1 < 1 1 1 < 1 1 < < ; -       ",
"T T   ; 1 a h ( j ( j ( j j j ( ( ( ( ( ( j ( ( ( z ( ( ( ( ( ( 2.( 2.2.2.2.( 2.( ( 2.2.2.2.2.2.2.2.2.2.2.2.2.2.2.2.a 1 ;       ",
"T T   < a 3.e.e.e.e.e.e.e.e.e.e.8.e.e.e.8.e.8.e.e.e.e.e.8.8.e.e.8.e.e.e.e.e.8.e.e.e.e.e.e.e.e.e.2.i.i.e.2.i.e.e.2.a.2.z <       ",
"T T   1 ( e.m.m.m.m.m.m.m.m.m.m.m.m.m.m.m.m.m.m.m.m.m.m.m.m.m.m.m.m.m.m.m.m.m.m.m.m.m.m.m.m.m.m.^.m.m.m.^.m.m.m.m.^.e.2.1 .     ",
"T T & < ( e.m.m.m.m.m.m.m.m.m.m.m.m.m.m.m.m.m.m.m.m.m.m.m.m.m.m.m.m.m.m.m.m.m.m.m.m.m.m.m.m.m.m.m.m.m.m.m.m.m.m.m.m.2.2.a . X X ",
"T T   9 j e.m.m.m.m.m.m.m.m.m.m.m.m.m.m.m.m.m.m.m.m.m.m.m.m.m.m.m.m.m.m.m.m.m.m.m.m.m.m.g.m.m.m.m.m.m.m.m.m.m.m.m.m.i.2.i & X X ",
"T T   < ( 8.m.m.m.m.m.m.m.m.m.m.m.m.m.m.m.m.m.m.m.m.m.m.m.m.m.m.m.m.m.m.m.m.m.m.m.m.m.m.m.m.m.m.m.m.m.m.m.m.m.m.m.m.2.2.1 X X X ",
"T T & < ( e.m.m.m.m.m.m.m.m.m.m.m.m.m.m.m.m.m.m.m.m.m.m.m.m.m.m.m.m.m.m.m.m.m.m.m.m.m.m.m.m.m.m.m.m.m.m.m.m.m.m.m.m.g.2.1 X X X ",
"T T   1 j e.m.m.m.m.m.m.m.m.m.h.m.m.m.m.m.m.m.m.m.m.m.m.m.m.m.m.m.m.m.m.m.m.m.m.m.m.m.m.m.m.m.m.m.m.m.m.m.m.m.m.m.m.2.2.1 . X   ",
"T T   1 ( e.m.m.m.m.m.m.m.m.m.m.m.m.m.m.m.m.m.m.m.m.m.m.m.m.m.m.m.m.m.m.m.m.m.g.m.m.m.m.m.m.m.m.m.m.m.m.m.m.m.m.m.^.g.2.1 .     ",
"T T   1 j e.m.m.m.m.m.m.m.m.m.m.m.h.m.m.m.m.m.m.m.m.m.m.m.m.m.m.m.m.m.m.m.m.m.m.m.m.m.m.m.m.m.m.m.m.m.m.m.m.m.m.m.m.j.2.1 .     ",
"T Y   1 ( e.m.m.m.m.m.m.m.m.m.m.m.m.m.m.m.m.m.m.m.m.m.m.m.m.m.m.m.m.m.m.m.m.m.m.m.m.m.m.m.m.m.m.m.m.m.m.m.m.m.m.m.m.2.2.1 .     ",
"T T   1 j e.m.m.m.m.m.m.m.m.m.m.m.m.m.m.m.m.m.m.m.m.m.m.m.m.m.m.m.m.m.m.m.m.m.m.m.m.m.m.m.m.m.m.m.m.m.m.m.m.m.m.m.m.2.2.z X X X ",
"T T   1 j e.m.m.m.m.m.m.m.m.m.m.m.m.m.m.m.m.m.m.m.m.m.m.m.m.m.m.m.m.m.m.m.m.m.m.m.m.m.m.m.m.m.m.m.m.m.m.m.m.m.m.m.m.a.2.i X X X ",
"T T o 1 2.e.m.m.m.m.m.m.m.m.m.m.m.m.m.m.m.m.m.m.m.m.m.m.m.m.m.m.m.m.m.m.m.m.m.m.m.m.m.m.m.m.m.m.m.m.m.m.m.m.m.m.m.m.2.2.1 X X X ",
"T T   1 2.e.m.m.m.m.m.m.m.m.~.m.m.m.m.~.m.m.m.m.x.m.m.m.m.~.m.m.m.m.m.m.~.m.m.m.m.m.~.m.m.m.~.m.m.m.m.m.m.m.m.m.m.m.g.2.1 X   X ",
"T T   i 2.i.^.^.^.^.^.^.^.^.^.^.^.^.^.^./.^.^.^.^.^.^.^.^.^.^.^.^.^.^.^.^.^.^.^.^.^.^.^.^.^.^.^.^.^.^.^.^.^.^.^.^.^.g.2.i X X X ",
"T T   i 2.a./././././././././././././././././././././././././././././././././././././././././././././././././././.(.g.2.i X X X ",
"T T . i 2.j.(.(.(.(.(.(.(.(.(.(.(.(.(.(.(.(.(.(.(.(.(.(.(.(.(.(.(.(.(.(.(.(.(.(.(.(.(.(.(.(.(.(.(.(.(.(.(.(.(.(.(.(.g.2.i       ",
"T T & i 2.j.(.(.(.(.(.(.(.(.(.(.(.(.(.(.(.(.(.(.(.(.(.(.(.(.(.(.(.(.(.(.(.(.(.(.(.(.(.(.(.(.(.(.(.(.(.(.(.(.(.(.(.(.g.2.i X     ",
"T T o 1 2.i.~.^.~.~.~.~.^.^.~.~.^.~.~.~.~.~.~.~.~.~.~.~.~.~.~.~.^.~.~.~.~.~.~.~.~.~.~.~.~.~.~.~.~.~.~.^.~.~.~.~.^.^.a.2.1 X X   ",
"T T   < j 8.g.g.h.h.h.h.h.h.h.h.g.h.h.h.h.h.h.h.h.h.h.h.h.h.h.h.h.h.h.h.h.h.h.h.h.h.h.h.h.h.h.h.h.h.h.h.h.h.h.h.g.g.2.2.1 X     ",
"T T   < a 4.p.p.p.p.i.p.p.p.p.p.p.p.p.p.p.p.p.p.p.p.p.p.p.p.p.p.p.p.p.p.p.p.p.p.p.p.p.p.p.p.p.p.p.p.i.i.p.p.p.p.i.a.2.2.< X     ",
"T T   < g z 7.7.8.8.8.8.7.7.7.7.7.7.7.7.7.7.7.7.7.7.7.7.7.7.7.7.7.7.7.7.7.7.7.7.7.7.7.7.7.7.7.7.8.8.8.8.8.0.e.8.2.a.2.z < X     ",
"T T   < a 2.8.8.7.7.7.7.7.7.7.7.7.7.7.7.7.7.7.7.7.7.7.7.7.7.7.7.7.7.7.7.7.7.7.7.7.7.7.7.7.7.7.7.7.7.7.7.8.8.8.8.e.i.2.a < X     ",
"T T   < a 2.8.8.7.7.7.7.7.7.7.7.7.7.7.7.7.7.7.7.7.7.7.7.7.7.7.7.7.7.7.7.7.7.7.7.7.7.7.7.7.7.7.7.7.7.7.7.8.8.8.8.e.2.2.a < X     ",
"T T   < i 2.8.8.7.8.7.7.7.7.7.7.7.7.7.7.7.7.7.7.7.7.7.7.7.7.7.7.7.7.7.7.7.7.7.7.7.7.7.8.7.7.8.7.7.7.7.7.0.8.8.e.2.i.2.a <       ",
"T T   ; i 2.4.6.6.6.6.6.6.6.6.6.6.4.4.4.4.4.6.4.4.4.4.4.4.6.4.4.4.4.6.4.4.4.4.4.4.4.4.6.4.4.4.6.6.6.6.6.8.e.2.8.e.2.2.i < X     ",
"T T   ; < a g h D 3.4.4.4.5.5.3.h j g g g g g g g g g g g j g j z j j g g j g g g g g j g g j ` D 5.4.4.5.4.3.2.h g a < ; X X X ",
"T T   - ; < 1 p s h h 3.z ` ( j a p 1 1 1 1 1 1 1 1 1 1 1 1 1 1 1 1 1 1 1 1 1 1 1 1 1 1 1 1 p a g h 3.h ` ( z g p 1 < ; - X     ",
"T T   . & O ; < 9 a g g j j g p 1 < - - ; - - - - - - - - - - - - - - - - - - - - - - * ; - ; 1 p g g g g g a 9 < - - o .       ",
"T T + O O . . ; 1 a j g j j g p < - X & * * = : : : : : : < : : : < : : : : : : = = = * . X - < p g j g g g a 9 ; . . o o + + + ",
"T T 4 % # O . ; 9 a ( ( D ( ( a 1 - X = > q e ~ ~ E W Q Q ^ / / / / ^ ^ W W E E ~ e q , = X - < a h h D ( ` a 9 ;   o $ 3 4 4 4 ",
"T T c 4 % @ . ; 9 g 4.4.5.4.5.s 1 ; * = e ! ] ] X.X.o.o.u.u.y.y.y.y.u.u.o.o.X.X.[ ] ! e , & ; 1 g 3.4.4.4.5.j a <   # % k l v l ",
"T T U v 4 $ X < a ( 8.6.8.6.4.h 9 - * q ! #.%.-.;.N.N.N.C.Y.U.U.U.U.Y.F.F.N.n.;.-.-.#.! q & ; 9 g 4.6.6.6.6.z a < o # 4 c U Y U ",
"T T T n k $ X < a 3.8.8.7.7.6.h p ; & 0 ) $.>.<.M.H.K.T.E.Q.!.!.!.!.Q.T.T.I.H.M.<.>.$.) 0 & ; p h 6.7.7.7.7.5.a <   $ k n T T T ",
"T T T n k $ . < a ` 7.7.7.7.6.h p ; * w _ %.<.G.J.I.T.T.W.Q.!.!.!.!.Q.W.T.T.K.J.M.M.=._ w * ; i z 6.7.7.7.7.5.a < o $ k C T T T ",
"T T T n k $   < a 3.7.7.7.7.6.h i ; * w | &.M.J.L.T.T.W.W.!.!.!.!.!.Q.Q.W.E.T.L.K.M.&.{ w * ; 9 ( 6.7.7.7.7.3.a <   $ k C T T T ",
"T T T m k $ . < a 3.7.7.7.7.6.h p ; * w { *.H.I.T.W.Q.Q.!.!.!.!.!.!.!.Q.Q.Q.W.T.I.H.n.} r * ; p h 6.7.7.7.7.3.a < . $ k C T T T ",
"T T T n k $   < a 3.7.7.7.7.6.z p ; * y } v.K.T.T.Q.!.Q.Q.W.W.W.Q.W.Q.Q.Q.!.Q.T.T.K.v.} y * ; p h 6.7.7.7.7.5.a < . $ k C T T T ",
"T T T n k $   < a 3.7.7.7.7.6.h 5 ; * t ..b.P.T.W.Q.Q.W.W.T.T.T.T.T.T.W.W.!.Q.W.T.T.v...u - ; 1 h 6.8.8.7.7.5.a < . $ k C T T T ",
"T T T n k %   < a 3.7.7.7.7.6.h 9 ; & u  .B.E.W.W.!.Q.W.T.T.L.T.L.L.L.T.W.Q.!.W.W.E.B. .u - ; p h 6.7.7.7.7.3.a < . $ k C T T T ",
"T T T n k $   < a 3.7.7.7.7.6.h p : - u @.V.Q.!.!.!.Q.E.T.K.K.H.H.K.K.T.T.!.!.!.Q.Q.A.r.u = ; 9 j 6.7.7.7.7.3.a < . $ k C T T T ",
"T T T m k $   < a 3.7.7.7.7.6.h i ; * d r.C.!.!.!.!.Q.T.L.K.H.H.H.H.K.T.T.!.!.!.!.!.Y.r.f - ; p h 6.7.7.7.8.3.a < . $ k C T T T ",
"T T T n k %   < a D 7.7.7.7.8.h p ; * d r.A.!.!.!.!.Q.E.T.J.H.H.H.H.J.P.R.!.!.!.!.!.C.u.f * ; p j 6.7.7.7.7.5.a < . $ 4 n T T T ",
"T T T n k $   < a ` 8.8.7.7.6.h p ; - u r.C.!.!.!.!.Q.R.L.K.H.H.H.H.K.L.E.W.!.!.!.!.A.r.f * ; p j 6.7.7.7.7.3.a < . $ k n T T T ",
"T T T n k $   < a 5.8.8.7.7.6.h p ; - d r.C.!.!.!.!.Q.R.L.K.H.J.H.H.K.P.R.W.!.!.!.!.C.r.f - ; 9 j 6.7.7.7.7.5.a < . 2 k n T T T ",
"T T T n k $ . < a z 8.8.7.7.6.h p ; * t  .V.W.Q.Q.!.Q.E.T.I.K.K.K.K.L.P.E.Q.!.!.Q.!.C.@.u * ; 9 j 6.7.7.7.7.D a < . $ k n T T T ",
"T T T n k $ . < s 3.7.7.7.7.6.h p ; * t ..B.R.E.W.Q.Q.W.E.T.T.P.T.T.T.T.W.!.Q.W.E.R.B...t * ; 9 h 6.7.7.7.7.5.a < . $ k n T T T ",
"T T T n k $   < a 3.7.7.7.7.6.h p ; & y O.v.L.R.E.Q.Q.Q.W.E.E.E.W.R.E.Q.W.!.W.E.T.P.B.O.t = ; 9 j 6.7.7.7.7.3.a < . $ k n T T T ",
"T T T n k $   < a D 7.7.7.7.6.h p ; & r { c.K.L.R.W.!.!.!.Q.!.Q.!.Q.Q.!.!.!.W.R.P.J.*.} y * - p h 6.7.7.7.7.3.s < . $ 4 C T T T ",
"T T T m k %   < a 3.7.7.7.7.6.h p ; * r | *.G.J.P.R.W.Q.Q.!.!.!.!.!.!.Q.W.W.E.P.K.J.*.] r = ; p h 6.7.7.7.7.3.s < . $ k C T T T ",
"T T T n k $ X < a 3.7.7.7.7.6.h p : * w ' %.M.J.K.L.T.R.W.!.!.!.!.!.Q.W.R.T.T.K.J.M.=.' r * ; p h 6.7.7.7.7.5.a < o $ k n T T T ",
"T T T n k $ . < a 3.7.7.7.7.6.h 5 ; * q ! %.,.G.J.K.P.T.E.!.!.!.!.!.Q.W.T.P.K.J.G.,.$.' w * - 9 h 6.7.7.7.7.3.s < . $ k n T T T ",
"T T T n k $ . < a 5.7.7.7.7.6.h 9 ; & q ' $.>.<.<.G.K.P.E.W.!.!.!.!.Q.R.I.K.G.M.,.>.$.) w * - p h 6.7.7.7.7.5.a < . $ k C T T T ",
"T T T m c 4 $ 3 6 F 0.0.0.0.q.D 6 3 2 s ` +.*.c.b.b.B.Z.S.D.D.D.D.D.S.S.Z.Z.b.b.c.*.+.` s 2 3 6 D q.0.0.0.0.F z 5 2 4 x m T T T ",
"T T T U C x k b N J L L L L L J b x 6 H G 9.t.s.d.k.d.k.k.x.x.x.x.x.x.k.k.f.d.s.t.t.9.G H l l H J L L L L L J b x k x C m T T T ",
"T T T Y Z V n V V K R R R R R K V N n N K I w.w.I R l.w.z.z.z.z.z.z.z.l.l.l.l.w.w.w.L L N M V B A U R R R K R A V n m Z Y T T T ",
"T T T T T T Y T T T T T T T T T T T Y T T T T T R T T T T T T T T T T T T T T T T T T T T T T T T T T T T T T T T T T T T T T T ",
"T T T T T T T T T T T T T T T T T T T T T T T T T T T T T T T T T T T T T T T T T T T T T T T T T T T T T T T T T T T T T T T T "
};
