/* XPM */
static char *Sand[] = {
/* columns rows colors chars-per-pixel */
"16 16 2 1 ",
"  c #DCC47E",
". c #E7D593",
/* pixels */
".   ..    ...  .",
"......  . .... .",
"....... ........",
"................",
"................",
"................",
"................",
"................",
"................",
"................",
"................",
"................",
"................",
" ...............",
"  ..... ...... .",
"    ... .....   "
};
