/* XPM */
static char *Trees[] = {
/* columns rows colors chars-per-pixel */
"64 64 143 2 ",
"   c #151515",
".  c #1F2119",
"X  c #272B1C",
"o  c #3F3323",
"O  c #313820",
"+  c #403424",
"@  c #423525",
"#  c #433627",
"$  c #453828",
"%  c #2D422B",
"&  c #3C4525",
"*  c #35482B",
"=  c #3F643C",
"-  c #43492C",
";  c #4F5B2C",
":  c #445A31",
">  c #4A5E31",
",  c #4D5835",
"<  c #535F31",
"1  c #5F5F33",
"2  c #695031",
"3  c #6B5333",
"4  c #6E5536",
"5  c #715838",
"6  c #745B3B",
"7  c #476A3C",
"8  c #5A6931",
"9  c #5B6F3C",
"0  c #4C703E",
"q  c #54723A",
"w  c #5C7338",
"e  c #5C783A",
"r  c #58783E",
"t  c #656F3C",
"y  c #637435",
"u  c #607638",
"i  c #677638",
"p  c #69783A",
"a  c #6C7F38",
"s  c #6D793F",
"d  c #467041",
"f  c #567B41",
"g  c #5A7E48",
"h  c #6C6F40",
"j  c #707C42",
"k  c #926E3E",
"l  c #837840",
"z  c #977142",
"x  c #9B7546",
"c  c #9F794A",
"v  c #A47D4E",
"b  c #7A853E",
"n  c #728B3E",
"m  c #768B3C",
"M  c #748C3E",
"N  c #788C3E",
"B  c #548749",
"V  c #52864C",
"C  c #5A8C4C",
"Z  c #5E9D57",
"A  c #6F8D4F",
"S  c #679249",
"D  c #62914C",
"F  c #73954D",
"G  c #6EA857",
"H  c #68A45A",
"J  c #64A85D",
"K  c #6CAE5D",
"L  c #76AD57",
"P  c #73AC5E",
"I  c #7CB95D",
"U  c #6AB362",
"Y  c #7DB361",
"T  c #7ABE62",
"R  c #70BF68",
"E  c #76CA6D",
"W  c #78CB6D",
"Q  c #7ACD6D",
"!  c #7CCE6D",
"~  c #7ED06D",
"^  c #8B854A",
"/  c #85954A",
"(  c #80954D",
")  c #87964D",
"_  c #929648",
"`  c #849C56",
"'  c #BC8B4C",
"]  c #A7934F",
"[  c #AB9B54",
"{  c #89A344",
"}  c #96AC49",
"|  c #94AF48",
" . c #9EBC4C",
".. c #90AF58",
"X. c #99AB5D",
"o. c #8BBB5D",
"O. c #9EB059",
"+. c #A1B54E",
"@. c #AAA851",
"#. c #AEBD53",
"$. c #A6BC5E",
"%. c #A9BC5E",
"&. c #88BA65",
"*. c #C29051",
"=. c #C89657",
"-. c #CD9B5C",
";. c #C9AD5E",
":. c #C2B95B",
">. c #D3A061",
",. c #A7C750",
"<. c #BAC657",
"1. c #B1D354",
"2. c #82C462",
"3. c #88CF68",
"4. c #82D26D",
"5. c #84D46D",
"6. c #86D56D",
"7. c #88D66D",
"8. c #8AD86D",
"9. c #8EDB6D",
"0. c #90DC6D",
"q. c #92DD6D",
"w. c #94DF6D",
"e. c #A0C863",
"r. c #AEC964",
"t. c #B4C964",
"y. c #B6D669",
"u. c #96E06D",
"i. c #99E06D",
"p. c #9DE06D",
"a. c #A0E16D",
"s. c #A3E16E",
"d. c #AAE16E",
"f. c #ADE16E",
"g. c #B1E26E",
"h. c #B4E26E",
"j. c #B7E26E",
"k. c #BEE26F",
"l. c #C0D669",
"z. c #C1E26F",
"x. c #C4E36F",
"c. c #C8E36F",
"v. c #CBE36F",
/* pixels */
"1.1.1.1.1.1.1.1.1.1.1.1.1.1.1.1.1.1.1.1.1.1.1.1.1.1.1.1.1.1.1.1.1.1.1.1.1.1.1.1.1.1.1.1.1.1.1.1.1.1.1.1.1.1.1.1.1.1.1.1.1.1.1.1.",
"1.1.1.1.1.1.1.1.1.1.1.1.1.1.1.1.1.1.1.1.1.1.,. .| { { { { { { { { { { { { { | +.,.1.1.1.1.1.1.1.1.1.1.1.1.1.1.1.1.1.1.1.1.1.1.1.",
"1.1.1.1.1.1.1.1.1.1.1.1.1.1.1.1.1.1.1.1.1.1. .{ m y y y y y y y y y y y y y M {  .1.1.1.1.1.1.1.1.1.1.1.1.1.1.1.1.1.1.1.1.1.1.1.",
"1.1.1.1.1.1.1.1.1.1.1.1.1.1.1.1.1.1.1.1.1.1.| m 8 & & & & & & & & & & & & & 8 M | 1.1.1.1.1.1.1.1.1.1.1.1.1.1.1.1.1.1.1.1.1.1.1.",
"1.1.1.1.1.1.1.1.1.1.1.1.1.1.1.1.1.1.1.1.1.1.{ u &                           & y { 1.1.1.1.1.1.1.1.1.1.1.1.1.1.1.1.1.1.1.1.1.1.1.",
"1.1.1.1.1.1.1.1.1.1.1.1.1.1.1.1.1.1.,. .| _ F i ; - - - - - - - - - - - - - 8 i N { |  .,.1.1.1.1.1.1.1.1.1.1.1.1.1.1.1.1.1.1.1.",
"1.1.1.1.1.1.1.1.1.1.1.1.1.1.1.1.1.1. .{ m y i i a j j j j s j h j j j j j s s i i y m {  .1.1.1.1.1.1.1.1.1.1.1.1.1.1.1.1.1.1.1.",
"1.1.1.1.1.1.1.1.1.1.1.1.1.1.1.1.1.1.| m 8 & < j / +.X.$.X.X.+.$.+.X.$.X.+.X./ j < & 8 m | 1.1.1.1.1.1.1.1.1.1.1.1.1.1.1.1.1.1.1.",
"1.1.1.1.1.1.1.1.1.1.1.1.1.1.1.1.1.1.{ y &   & j O.v.v.v.v.v.v.v.v.v.v.v.v.v.$.j -   & y { 1.1.1.1.1.1.1.1.1.1.1.1.1.1.1.1.1.1.1.",
"1.1.1.1.1.1.1.1.1.1.1.1.1.1.,. .| { m i < - h ) $.v.v.v.v.v.v.v.v.v.v.v.v.v.$.^ t - < i N { |  .,.1.1.1.1.1.1.1.1.1.1.1.1.1.1.1.",
"1.1.1.1.1.1.1.1.1.1.1.1.1.1. .{ m y i i j j ) +.t.v.v.v.v.v.v.v.v.v.v.v.v.v.t.X.) s s i i y m {  .1.1.1.1.1.1.1.1.1.1.1.1.1.1.1.",
"1.1.1.1.1.1.1.1.1.1.1.1.1.1.| m 8 & < j / X.%.t.l.v.v.v.v.v.v.v.v.v.v.v.v.v.l.t.%.X./ j < & 8 m | 1.1.1.1.1.1.1.1.1.1.1.1.1.1.1.",
"1.1.1.1.1.1.1.1.1.1.1.1.1.1.{ y &   - j O.v.v.v.v.v.v.v.v.v.v.v.v.v.v.v.v.v.v.v.v.v.X.j -   & y { 1.1.1.1.1.1.1.1.1.1.1.1.1.1.1.",
"1.1.1.1.1.1.1.1.1.1.1.1.1.1.{ y &   - j O.v.v.v.v.v.v.v.v.v.v.v.v.v.v.v.v.v.v.v.v.v.$.j -   & y { 1.1.1.1.1.1.1.1.1.1.1.1.1.1.1.",
"1.1.1.1.1.1.1.1.1.1.1.1.1.1.{ y &   - j O.v.v.v.v.v.v.v.v.v.v.v.v.v.v.v.v.v.v.v.v.v.+.j -   & y { 1.1.1.1.1.1.1.1.1.1.1.1.1.1.1.",
"1.1.1.1.1.1.1.1.1.1.1.1.1.1.{ y &   - j O.v.v.v.v.v.v.v.v.v.v.v.v.v.v.v.v.v.v.v.v.v.X.j -   & y { 1.1.1.1.1.1.1.1.1.1.1.1.1.1.1.",
"1.1.1.1.1.1.1.1.1.1.1.1.1.1.{ y &   - j O.v.v.v.v.v.v.v.v.v.v.v.v.v.v.v.v.v.v.v.v.v.X.j -   & y { 1.1.1.1.1.1.1.1.1.1.1.1.1.1.1.",
"1.1.1.1.1.1.1.1.1.1.,. .| { M u > * 9 ( $.v.v.v.v.v.v.v.v.v.v.v.v.v.v.v.v.v.v.v.v.v.%.( 9 * > u m { |  .,.1.1.1.1.1.1.1.1.1.1.1.",
"1.1.1.1.1.1.1.1.1.1. .{ m y u e r f F ..r.v.v.v.v.v.v.v.v.v.v.v.v.v.v.v.v.v.v.v.v.v.r...F f r e y y m {  .1.1.1.1.1.1.1.1.1.1.1.",
"1.1.1.1.1.1.1.1.1.1.| m 8 & > r S L o.e.y.v.v.v.v.v.v.v.v.v.v.v.v.v.v.v.v.v.v.v.v.v.y.e.o.L S f > & 8 m | 1.1.1.1.1.1.1.1.1.1.1.",
"1.1.1.1.1.1.1.1.1.1.{ y &   * f L u.a.h.k.v.v.v.v.v.v.v.v.v.v.v.v.v.v.v.v.v.v.v.v.v.k.h.a.i.L f *   & y { 1.1.1.1.1.1.1.1.1.1.1.",
"1.1.1.1.1.1.1.1.1.1.{ y &   * f L u.a.f.h.k.z.x.v.v.v.v.v.v.v.v.v.v.v.v.v.v.c.x.z.z.h.d.a.u.L f *   & y { 1.1.1.1.1.1.1.1.1.1.1.",
"1.1.1.1.1.1.1.1.1.1.{ y &   * f L u.p.a.d.h.h.z.x.v.v.v.v.v.v.v.v.v.v.v.v.v.x.k.h.h.d.a.p.u.L f *   & y { 1.1.1.1.1.1.1.1.1.1.1.",
"1.1.1.1.1.1.1.1.1.1.{ y &   * f L u.i.p.a.s.f.h.z.v.v.v.v.v.v.v.v.v.v.v.v.v.z.j.f.s.a.p.i.u.L f *   & y { 1.1.1.1.1.1.1.1.1.1.1.",
"1.1.1.1.1.1.1.1.1.1.{ y &   * f L u.u.u.u.u.s.g.k.v.v.v.v.v.v.v.v.v.c.v.v.v.k.h.a.i.u.u.u.u.L f *   & y { 1.1.1.1.1.1.1.1.1.1.1.",
"1.1.1.1.1.1.,. .| { n w : % 7 D I u.u.u.u.u.a.d.h.k.k.k.k.k.k.k.k.k.k.k.k.k.h.d.a.u.u.u.u.u.I D 7 % : w n { |  .,.1.1.1.1.1.1.1.",
"1.1.1.1.1.1. .{ m y w q 0 d C G 2.u.u.u.u.u.p.a.d.g.g.g.g.g.g.g.h.h.h.h.h.h.d.a.p.u.u.u.u.u.2.G C d 0 q w y m {  .1.1.1.1.1.1.1.",
"1.1.1.1.1.1.| m 8 & : 0 B Z K T 3.u.u.u.u.i.i.p.a.s.s.s.s.s.s.s.a.s.a.a.a.s.a.p.u.u.u.u.u.u.3.T K Z B 0 : & 8 m | 1.1.1.1.1.1.1.",
"1.1.1.1.1.1.{ y &   % d Z E ~ 6.9.u.u.u.u.u.u.u.u.u.u.u.u.u.u.u.u.u.u.u.u.u.u.u.u.u.u.u.u.u.9.6.~ E Z d %   & y { 1.1.1.1.1.1.1.",
"1.1.1.1.1.1.{ y &   % d Z E ~ 6.9.u.u.u.u.u.u.u.u.u.u.u.u.u.u.u.u.u.u.u.u.u.u.u.u.u.u.u.u.u.9.6.~ E Z d %   & y { 1.1.1.1.1.1.1.",
"1.1.1.1.1.1.{ y &   % d Z E ~ 6.9.u.u.u.u.u.u.u.u.u.u.u.u.u.u.u.u.u.u.u.u.u.u.u.u.u.u.u.u.u.9.6.~ E Z d %   & y { 1.1.1.1.1.1.1.",
"1.1.1.1.1.1.{ y &   % d Z E ~ 6.9.u.u.u.u.u.u.u.u.u.u.u.u.u.u.u.u.u.u.u.u.u.u.u.u.u.u.u.u.u.9.6.~ E Z d %   & y { 1.1.1.1.1.1.1.",
"1.1.1.1.1.1.{ y &   % d Z E ~ 6.9.u.u.u.u.u.u.u.u.u.u.u.u.u.u.u.u.u.u.u.u.u.u.u.u.u.u.u.u.u.9.6.~ E Z 0 %   & y { 1.1.1.1.1.1.1.",
"1.1.1.1.1.1.{ y &   % d Z E ! 4.7.9.9.q.u.u.u.u.u.u.u.u.u.u.u.u.u.u.u.u.u.u.u.u.u.u.u.0.0.9.6.4.! E Z d %   & y { 1.1.1.1.1.1.1.",
"1.1.1.1.1.1.{ y &   % d Z E Q ~ 4.6.8.9.q.u.u.u.u.u.u.u.u.u.u.u.u.u.u.u.u.u.u.u.u.u.0.0.8.6.4.! Q E Z d %   & y { 1.1.1.1.1.1.1.",
"1.1.1.1.1.1.{ y &   % d Z E E Q ! ~ 6.7.q.u.u.u.u.u.u.u.u.u.u.u.u.u.u.u.u.u.u.u.u.i.0.7.6.~ ! ! Q E Z d %   & y { 1.1.1.1.1.1.1.",
"1.1.1.1.1.1.{ y &   % d Z E E E E E ~ 6.9.u.u.u.u.u.u.u.u.u.u.u.u.u.u.u.u.u.u.u.w.w.0.6.Q E E E E E Z d %   & y { 1.1.1.1.1.1.1.",
"1.1.1.1.1.1.{ y &   % d Z E E E E E ! 4.7.9.9.9.9.9.9.9.9.9.9.9.9.9.9.9.9.9.9.9.9.9.7.4.Q E E E E E Z d %   & y { 1.1.1.1.1.1.1.",
"1.1.1.1.1.1.{ y &   % d Z E E E E E Q ~ 4.6.6.6.6.6.6.6.6.6.6.6.6.6.6.6.6.6.6.6.6.6.4.! Q E E E E E Z d %   & y { 1.1.1.1.1.1.1.",
"1.1.1.1.1.1.{ y &   % d Z E E E E E Q Q ! ~ ~ ~ ~ ~ ~ ~ ~ ~ ~ ! ~ ~ ~ ~ ~ ~ ~ ~ 4.! ! Q E E E E E E Z d %   & w { 1.1.1.1.1.1.1.",
"1.1.1.1.1.1.{ y &   % d Z E E E E E E E E E E E E E E E E E E E E E E E E E E E E E E E E E E E E E Z 0 %   & y { 1.1.1.1.1.1.1.",
"1.1.1.1.1.1.| m 8 & : 0 B Z J U R E E E E E E E E E E E E E E E E E E E E E E E E E E E E E E U J Z B 0 : & 8 m | 1.1.1.1.1.1.1.",
"1.1.1.1.1.1. .{ m y w q 0 d V Z U E E E E E E E E E E E E E E E E E E E E E E E E E E E E E U Z V d 0 q w y m {  .1.1.1.1.1.1.1.",
"1.1.1.1.1.1.,. .| { n w : % = V J E E E E E E E E E E E E E E E E E E E E E E E E E E E E E J V = % : w n { |  .,.1.1.1.1.1.1.1.",
"1.1.1.1.1.1.1.1.1.1.{ y &   % d Z E E E E E E E E E E E E E E E E E E E E E E E E E E E E E Z d %   & y { 1.1.1.1.1.1.1.1.1.1.1.",
"1.1.1.1.1.1.1.1.1.1.| m 8 & : 0 B Z Z Z Z Z H P Y &.&.&.&.&.&.&.&.&.&.&.&.&.Y P H Z Z Z Z Z B 0 : & 8 n | 1.1.1.1.1.1.1.1.1.1.1.",
"1.1.1.1.1.1.1.1.1.1. .{ m y w q 0 d d d d d g A ` X.X.X.X.X.X.X.X.X.X.X.X.X.` A g d d d d d 0 q w y m {  .1.1.1.1.1.1.1.1.1.1.1.",
"1.1.1.1.1.1.1.1.1.1.,. .| { n w : % % % % % , h ^ [ [ [ [ [ [ [ [ [ [ [ [ [ ^ h , % % % % % : w n { |  .,.1.1.1.1.1.1.1.1.1.1.1.",
"1.1.1.1.1.1.1.1.1.1.1.1.1.1.{ y &           o 2 k ' ' ' ' ' ' ' ' ' ' ' ' ' k 2 o           & y { 1.1.1.1.1.1.1.1.1.1.1.1.1.1.1.",
"1.1.1.1.1.1.1.1.1.1.1.1.1.1.| m 8 & O X .   + 3 z *.*.*.*.*.*.*.*.*.*.*.*.*.z 3 +   . X O & 8 m | 1.1.1.1.1.1.1.1.1.1.1.1.1.1.1.",
"1.1.1.1.1.1.1.1.1.1.1.1.1.1. .{ m y ; & X   @ 4 x =.=.=.=.=.=.=.=.=.=.=.=.=.z 4 @   X & ; y m {  .1.1.1.1.1.1.1.1.1.1.1.1.1.1.1.",
"1.1.1.1.1.1.1.1.1.1.1.1.1.1.,. .| { a ; O   # 5 c -.-.-.-.-.-.-.-.-.-.-.-.-.v 5 @   O ; a { |  .,.1.1.1.1.1.1.1.1.1.1.1.1.1.1.1.",
"1.1.1.1.1.1.1.1.1.1.1.1.1.1.1.1.1.1.{ y &   $ 6 v >.>.>.>.>.>.>.>.>.>.>.>.>.v 6 $   & y { 1.1.1.1.1.1.1.1.1.1.1.1.1.1.1.1.1.1.1.",
"1.1.1.1.1.1.1.1.1.1.1.1.1.1.1.1.1.1.{ y &   $ 6 v >.>.>.>.>.>.>.>.>.>.>.>.>.v 6 $   & y { 1.1.1.1.1.1.1.1.1.1.1.1.1.1.1.1.1.1.1.",
"1.1.1.1.1.1.1.1.1.1.1.1.1.1.1.1.1.1.{ y &   $ 6 v >.>.>.>.>.>.>.>.>.>.>.>.>.v 6 $   & y { 1.1.1.1.1.1.1.1.1.1.1.1.1.1.1.1.1.1.1.",
"1.1.1.1.1.1.1.1.1.1.1.1.1.1.1.1.1.1.{ y &   $ 6 v >.>.>.>.>.>.>.>.>.>.>.>.>.v 6 $   & y { 1.1.1.1.1.1.1.1.1.1.1.1.1.1.1.1.1.1.1.",
"1.1.1.1.1.1.1.1.1.1.1.1.1.1.1.1.1.1.{ y &   $ 6 v >.>.>.>.>.>.>.>.>.>.>.>.>.v 6 $   & y { 1.1.1.1.1.1.1.1.1.1.1.1.1.1.1.1.1.1.1.",
"1.1.1.1.1.1.1.1.1.1.1.1.1.1.1.1.1.1.| m 8 & 1 l ] ;.;.;.;.;.;.;.;.;.;.;.;.;.] l 1 & 8 m | 1.1.1.1.1.1.1.1.1.1.1.1.1.1.1.1.1.1.1.",
"1.1.1.1.1.1.1.1.1.1.1.1.1.1.1.1.1.1. .{ m y b _ @.:.:.:.:.:.:.:.:.:.:.:.:.:.@._ b y m {  .1.1.1.1.1.1.1.1.1.1.1.1.1.1.1.1.1.1.1.",
"1.1.1.1.1.1.1.1.1.1.1.1.1.1.1.1.1.1.,. .| { } +.#.<.<.<.<.<.<.<.<.<.<.<.<.<.#.+.| { |  .,.1.1.1.1.1.1.1.1.1.1.1.1.1.1.1.1.1.1.1.",
"1.1.1.1.1.1.1.1.1.1.1.1.1.1.1.1.1.1.1.1.1.1.1.1.1.1.1.1.1.1.1.1.1.1.1.1.1.1.1.1.1.1.1.1.1.1.1.1.1.1.1.1.1.1.1.1.1.1.1.1.1.1.1.1.",
"1.1.1.1.1.1.1.1.1.1.1.1.1.1.1.1.1.1.1.1.1.1.1.1.1.1.1.1.1.1.1.1.1.1.1.1.1.1.1.1.1.1.1.1.1.1.1.1.1.1.1.1.1.1.1.1.1.1.1.1.1.1.1.1.",
"1.1.1.1.1.1.1.1.1.1.1.1.1.1.1.1.1.1.1.1.1.1.1.1.1.1.1.1.1.1.1.1.1.1.1.1.1.1.1.1.1.1.1.1.1.1.1.1.1.1.1.1.1.1.1.1.1.1.1.1.1.1.1.1.",
"1.1.1.1.1.1.1.1.1.1.1.1.1.1.1.1.1.1.1.1.1.1.1.1.1.1.1.1.1.1.1.1.1.1.1.1.1.1.1.1.1.1.1.1.1.1.1.1.1.1.1.1.1.1.1.1.1.1.1.1.1.1.1.1."
};
