/* XPM */
static char *Trees[] = {
/* columns rows colors chars-per-pixel */
"16 16 7 1 ",
"  c None",
". c gray9",
"X c #76CA6D",
"o c #BC8B4D",
"O c #D3A061",
"+ c #96E06D",
"@ c #CBE36F",
/* pixels */
"                ",
"      ....      ",
"     .@@@@.     ",
"    .@@@@@@.    ",
"    .@@@@@@.    ",
"   .+@@@@@@+.   ",
"   .++@@@@++.   ",
"  .X++++++++X.  ",
"  .X++++++++X.  ",
"  .XX++++++XX.  ",
"  .XXXXXXXXXX.  ",
"   .XXXXXXXX.   ",
"    ..oooo..    ",
"     .OOOO.     ",
"     .OOOO.     ",
"                "
};
