/* XPM */
static char *Gangblanc_right_stand[] = {
/* columns rows colors chars-per-pixel */
"16 16 20 1 ",
"  c None",
". c gray9",
"X c #2C2C2C",
"o c #50391C",
"O c gray35",
"+ c #A43434",
"@ c #BA4523",
"# c #BC4E4E",
"$ c #93674D",
"% c #BF8221",
"& c #ED9D1C",
"* c #B08561",
"= c #FAB656",
"- c #F7E240",
"; c #FFCC6B",
": c gray66",
"> c #FFE4A5",
", c #D7D7D7",
"< c #F4F4F4",
"1 c white",
/* pixels */
"        ....    ",
"      ..&---.   ",
"     .&&XOOO.   ",
"    .&XXOOOO.   ",
"   .@XXXXOOO.   ",
"   .X@.11.&@.   ",
"  ..XXX.11.>.   ",
" .+++##.,1.*.   ",
"  ..=%+.,,.;.   ",
"    .%.,,.;.... ",
"     .X..=%=.<. ",
"     .XXX%X=.:. ",
"     .#+++.%..  ",
"     .oo..$$.   ",
"      ..  ..    ",
"                "
};
