/* XPM */
static char *char_down[] = {
/* columns rows colors chars-per-pixel */
"64 64 231 2 ",
"   c #151515",
".  c gray11",
"X  c #3A1E1C",
"o  c #231E15",
"O  c #26261B",
"+  c #3C211A",
"@  c #352C19",
"#  c #242424",
"$  c #2B2B2B",
"%  c #2D2A26",
"&  c #352A23",
"*  c #392927",
"=  c #343724",
"-  c #353535",
";  c #3C3C3C",
":  c #3D3A36",
">  c #1F2119",
",  c #4B3716",
"<  c #43381C",
"1  c #5E391A",
"2  c #672C1D",
"3  c #763C1E",
"4  c #422C2C",
"5  c #4A2D2D",
"6  c #4C2222",
"7  c #582D2D",
"8  c #5A2726",
"9  c #4E322A",
"0  c #483C2B",
"q  c #45352A",
"w  c #57362B",
"e  c #4E3333",
"r  c #413B33",
"t  c #543E31",
"y  c #5D3333",
"u  c #652B29",
"i  c #67362A",
"p  c #733827",
"a  c #76382A",
"s  c #6A3131",
"d  c #653B34",
"f  c #733C3C",
"g  c #793A34",
"h  c #732D2D",
"j  c #3C4525",
"k  c #4D421C",
"l  c #694B1A",
"z  c #7B5B1D",
"x  c #72501F",
"c  c #4E4820",
"v  c #48482C",
"b  c #5C4827",
"n  c #53432B",
"m  c #564728",
"M  c #5C5625",
"N  c #594B31",
"B  c #574534",
"V  c #595B31",
"C  c #4F532E",
"Z  c #794527",
"A  c #795929",
"S  c #694B38",
"D  c #675433",
"F  c #74533F",
"G  c #745D3C",
"H  c #6D4B2B",
"J  c #5A6931",
"K  c #69682C",
"L  c #746527",
"P  c #7A782D",
"I  c #626535",
"U  c #637435",
"Y  c #6D7832",
"T  c #786337",
"R  c #454545",
"E  c #4B4B4B",
"W  c #585846",
"Q  c #525252",
"!  c #595959",
"~  c #5E5050",
"^  c #5E4242",
"/  c #6A5C4A",
"(  c #5E654D",
")  c #7C6142",
"_  c #7E6A49",
"`  c #726547",
"'  c #6A7748",
"]  c #727253",
"[  c #737465",
"{  c #767676",
"}  c #7B7B7B",
"|  c #6A6868",
" . c #91391F",
".. c #812D2B",
"X. c #893727",
"o. c #953E25",
"O. c #863232",
"+. c #8D3939",
"@. c #943B32",
"#. c #A53535",
"$. c #AF3D2B",
"%. c #825918",
"&. c #98691C",
"*. c #88631C",
"=. c #B87B19",
"-. c #B27A1E",
";. c #A1701E",
":. c #87482A",
">. c #91452E",
",. c #845923",
"<. c #9D542A",
"1. c #814632",
"2. c #9D5735",
"3. c #8F5234",
"4. c #AB482F",
"5. c #A04F23",
"6. c #B84424",
"7. c #B25B2B",
"8. c #A84538",
"9. c #B24C38",
"0. c #B45038",
"q. c #BA563E",
"w. c #A9592B",
"e. c #8C6422",
"r. c #8A6826",
"t. c #9A6A27",
"y. c #877C2A",
"u. c #8B7529",
"i. c #876837",
"p. c #997531",
"a. c #956F33",
"s. c #B86F25",
"d. c #B06527",
"f. c #A67527",
"g. c #B97526",
"h. c #B86135",
"j. c #A57B39",
"k. c #B47636",
"l. c #A76428",
"z. c #C75B20",
"x. c #C46B3B",
"c. c #C57A31",
"v. c #D4711E",
"b. c #924040",
"n. c #984545",
"m. c #9C4E41",
"M. c #9A5948",
"N. c #8B504B",
"B. c #A94D48",
"V. c #BC4E4E",
"C. c #B44644",
"Z. c #AB574B",
"A. c #93674D",
"S. c #9D614D",
"D. c #817B53",
"F. c #927446",
"G. c #AF7A53",
"H. c #8F6E66",
"J. c #B46F6F",
"K. c #C15B46",
"L. c #C8674A",
"P. c #D0764A",
"I. c #768B3C",
"U. c #77863A",
"Y. c #6E813A",
"T. c #7A8C46",
"R. c #BD811E",
"E. c #968938",
"W. c #998E2E",
"Q. c #BF8221",
"!. c #BC8728",
"~. c #B28F35",
"^. c #BFAF35",
"/. c #BDA22E",
"(. c #EE9D1A",
"). c #E2961C",
"_. c #E1871C",
"`. c #C98C2A",
"'. c #C18321",
"]. c #CE883A",
"[. c #D99838",
"{. c #C89735",
"}. c #C6B33A",
"|. c #E7AF36",
" X c #DA9320",
".X c #F8E23F",
"XX c #F4C932",
"oX c #9C8D43",
"OX c #A79C4A",
"+X c #AF8758",
"@X c #A88151",
"#X c #B7904C",
"$X c #89A344",
"%X c #94AF48",
"&X c #9EBC4C",
"*X c #858475",
"=X c #9A8771",
"-X c #AD8A6A",
";X c #D78842",
":X c #D18F53",
">X c #E69850",
",X c #CCB942",
"<X c #CEAA52",
"1X c #E6A445",
"2X c #F5B152",
"3X c #D7AA6C",
"4X c #E2AD6E",
"5X c #E8BA62",
"6X c #A7C750",
"7X c #B1D354",
"8X c #D0C046",
"9X c #F0CF51",
"0X c #8B8B8B",
"qX c #848583",
"wX c #988F8B",
"eX c #A9A69B",
"rX c #A7A7A7",
"tX c #ACACAC",
"yX c #B9B9B9",
"uX c #AE9292",
"iX c #CC9999",
"pX c #C8A99B",
"aX c #C5C5C5",
"sX c #CCC9C9",
"dX c #D6D6D6",
"fX c #DDDDDD",
"gX c #DBC9C9",
"hX c #E5E5E5",
"jX c #F3F3F3",
"kX c #FEFEFE",
"lX c #E8CCCC",
/* pixels */
"7X7X7X7X7X7X7X7X7X7X7X7X7X7X7X7X7X7X7X7X7X7X$XU j                           j U $X7X7X7X7X7X7X7X7X7X7X7X7X7X7X7X7X7X7X7X7X7X7X7X",
"7X7X7X7X7X7X7X7X7X7X7X7X7X7X7X7X7X7X6X&X%X$XI.Y M c c c c c c c c c c c c c M Y I.$X%X&X6X7X7X7X7X7X7X7X7X7X7X7X7X7X7X7X7X7X7X7X",
"7X7X7X7X7X7X7X7X7X7X7X7X7X7X7X7X7X7X&X$XI.U Y P P W.W.P y.y.y.y.y.y.y.y.P E.P P Y U I.$X&X7X7X7X7X7X7X7X7X7X7X7X7X7X7X7X7X7X7X7X",
"7X7X7X7X7X7X7X7X7X7X7X7X7X7X7X7X7X7X%XI.J j M U.W.^.^./.^.^.^.^.^.^.^.^.^.}.W.P M j J I.%X7X7X7X7X7X7X7X7X7X7X7X7X7X7X7X7X7X7X7X",
"7X7X7X7X7X7X7X7X7X7X7X7X7X7X7X7X7X7X$XY j   c y./..X.X.X.X.X.X.X.X.X.X.X.X.X^.y.c   j U $X7X7X7X7X7X7X7X7X7X7X7X7X7X7X7X7X7X7X7X",
"7X7X7X7X7X7X7X7X7X7X7X7X7X7X6X&X%X$XI.K M , x u.W.^.}.8X8X8X8X8X8X8X8X8X}.}.W.y.l k M Y U.$X%X&X6X7X7X7X7X7X7X7X7X7X7X7X7X7X7X7X",
"7X7X7X7X7X7X7X7X7X7X7X7X7X7X&X$XI.U K L z z e.u.W.E.E.E.OXOXOXOXOXOXOXE.E.E.u.u.z %.z L K Y I.$X&X7X7X7X7X7X7X7X7X7X7X7X7X7X7X7X",
"7X7X7X7X7X7X7X7X7X7X7X7X7X7X%XI.J j M z &.=.;.r.L M I ` ' D.oX[ ] oX_ ` I V L &.;.R.&.z M j J I.%X7X7X7X7X7X7X7X7X7X7X7X7X7X7X7X",
"7X7X7X7X7X7X7X7X7X7X7X7X7X7X$XU j   , z =.(.=.e.B $ - R E ! ! ! ! ! E R - $ b e.Q.(.-.%.,   j U $X7X7X7X7X7X7X7X7X7X7X7X7X7X7X7X",
"7X7X7X7X7X7X7X7X7X7X6X&X%X$XI.K M , l e.f.`.j.A N ; j E Q ! ! ! ! ! E E r - N i.f.`.f.e.l , M K U.$X%X&X6X7X7X7X7X7X7X7X7X7X7X7X",
"7X7X7X7X7X7X7X7X7X7X&X$XI.U K L z %.e.t.p.j.i.` W R R E Q ! ! ! ! ! Q Q R R W ` i.j.p.t.e.%.z A K U I.$X&X7X7X7X7X7X7X7X7X7X7X7X",
"7X7X7X7X7X7X7X7X7X7X%XI.J j M z &.=.f.a.a._ ` / ~ E Q Q ! ! ! ! ! ! ! Q Q E ~ W ` D.i.p.f.=.&.z M j J I.%X7X7X7X7X7X7X7X7X7X7X7X",
"7X7X7X7X7X7X7X7X7X7X$XU j   , z =.(.`.j._ ! ! ! ! ! ! ! ! ! ! ! ! ! ! ! ! ! ! ! ! ! A.p.`.(.=.%.,   j U $X7X7X7X7X7X7X7X7X7X7X7X",
"7X7X7X7X7X7X6X&X%X$XY.K c 6 1 z ;.=.f.i./ Q Q Q Q ! ! ! ! ! ! ! ! ! ! ! ! ! ! Q Q E / i.p.R.&.%.1 + k K U.$X%X&X6X7X7X7X7X7X7X7X",
"7X7X7X7X7X7X&X$XI.U K H 1 2 3 x %.,.A D B R R E Q ! ! ! ! ! ! ! ! ! ! ! ! ! Q E E R B D A e.,.x 3 2 1 H K U I.$X&X7X7X7X7X7X7X7X",
"7X7X7X7X7X7X%XI.J j k i 3  . .3 H b n v : - R R Q ! ! ! ! ! ! ! ! ! ! ! Q ! Q E ; - r r m b H 3 X. .p l c j J I.%X7X7X7X7X7X7X7X",
"7X7X7X7X7X7X$XU j   + 2  .6.o.p 5 $ $ $ $ $ - R E ! ! ! ! ! ! ! ! ! ! ! ! ! E R - $ $ $ $ $ 9 p >.6. .2 +   j U $X7X7X7X7X7X7X7X",
"7X7X6X&X%X$XY.C =   + 2  .6.o.p 5 $ * * q 9 B S ` _ A.` _ _ _ _ _ _ _ _ _ _ G D B 9 q * % $ 5 h  .6. .2 X   j U $X7X7X7X7X7X7X7X",
"7X7X&X$XI.U C j O   X u X.$.X.p 5 $ 4 9 i a :.,.a.j.j.j.j.j.j.p.j.j.j.j.j.j.a.3.:.p i 9 * $ 5 h X.$.X.2 X   j U $X7X7X7X7X7X7X7X",
"7X7X%XI.J j = O o   X 8 ..#.X.s 5 % q i a o.<.d.g.`.`.`.`.`.`.`.`.`.`.`.`.`.g.d.5.>.a i 9 $ 5 s O.$...8 &   j U $X7X7X7X7X7X7X7X",
"7X7X$XU j           X 8 ..#.O.s 5 % 5 p o.6.z.v._.(.(.(.(.(.(.(.(.(.(.(.(.(._.v.z.6. .a 7 $ 5 u O.#...8 X   j U $X7X7X7X7X7X7X7X",
"7X7X$XU j   > % - ; e y h h h u 7 5 y p X.>.5.d.g.g.R.R.'.=.Q.Q.R.R.R.R.R.'.s.l.5.o.X.p 7 e ^ N.B.J.H.H.~ ^ ( | T.$X%X&X6X7X7X7X",
"7X7X$XU j   # j E ! ~ ^ y 8 u u u s i p p 3 Z %.,.e.e.e.e.e.r.e.e.e.e.e.,.e.,.%.Z p p p s s N.S.J.iXiXuXuX0XH.T.' U I.$X&X7X7X7X",
"7X7X$XU j   - Q | qX| ~ e X 6 8 h O.h h 7 9 9 9 b b b b b b b b b b m m b b b w 9 9 w s h O.S.uXpXlXlXsXaXaXrX} ( j J I.%X7X7X7X",
"7X7X$XU j   ; ! 0XtXqX| ;   X 8 h #.O.s 4 % $ $ $ $ $ $ $ $ $ $ $ $ $ $ $ $ $ $ $ $ 5 s O.#.J.iXlXkXkXkXkXkXaXqXQ   j U $X7X7X7X",
"7X7X$XU j   : / *XeXH./ :   + i >.h.2.1.s 5 4 * - $ $ $ $ $ $ $ $ $ $ $ $ $ - * 4 4 d 1.2.7.P.-XeXaXdXhXjXkXdXrX} Q ( ] T.$X$X$X",
"7X7X$XU j   r / =XpX=X| r   < A f.{.k.2.1.s 7 4 * $ $ $ $ $ $ $ $ $ $ $ $ $ * 5 7 s 1.2.k.{.:X-X=XwXrXaXhXkXhXaXrX0XT.[ T.U U U ",
"7X7X$XU j   r ` =X3X-X` 0   , L ~.1X{.k.2.O.s 7 4 $ $ $ $ $ $ $ $ $ $ $ $ $ 5 7 h O.2.k.{.1X#XoX` Q { rXdXkXjXfXdXaXrX} ! j j j ",
"7X7X$XU j   0 ) @X4X+X) v   c y.}..X1X{.h.#.O.s 5 $ $ $ $ $ $ $ $ $ $ $ $ $ 5 s O.#.q.{.|..X^.y.c   Q 0XaXkXkXkXkXkXaX0XE       ",
"7X7X$XU j   0 ) +X4X+XT 0   = K E.^./.k.h.4.>.g s 5 5 e e e e e e e e e e 4 i g >.4.h.k.~.^.W.L q   E qXyXkXkXkXkXkXaX0XQ       ",
"7X7X$XU j   : ) +X4X+XN.q   @ c K y.u.t.l.7.5.>.g u s f f f f f f f f s s s a >.5.7.l.t.u.E.K c @   E *XyXhXhXkXkXkXaX0XQ       ",
"7X7X$XU j   q ) +X4X+XT 0   O @ @ c x %.t.s.7.<.>.O.+.+.b.b.n.n.n.n.b.+.+.O.@.<.l.s.t.z l k = @ >   E } tXhXhXhXkXkXaX0XE       ",
"7X7X$XU j   0 ) +X4X@XA.q           < l &.=.g.7.4.#.#.C.V.V.V.K.V.V.V.C.#.#.#.7.s.Q.&.l <           v { rXdXhXhXkXkXaX0XE       ",
"7X7X$XU j   0 ) +X4X#XF.K c k k , , l e.f.`.c.d.9.#.#.q.V.L.L.L.L.L.K.K.C.#.4.7.s.Q.;.%.l , + @ o   R { rXdXfXhXjXjXaXqXE       ",
"7X7X$XU j   0 ) +X4X<X#XE.y.y.*.*.%.&.f.'.[.c.h.9.#.8.V.L.P.P.P.:XP.P.K.$.#.4.7.s.Q.-.;.&.%.l , @   R { rXdXfXfXhXjXyX} E       ",
"7X7X$XU j   0 ) +X4X3X<X}.}./.!.Q.=.'.`.].[.].h.9.#.9.h.P.;X;X>X>X>XP.P.C.#.4.7.s.Q.=.R.=.=.%.l @   R { rXdXfXfXfXfXtX{ E       ",
"7X7X$XU j   q ) +X4X5X9X9X.XXXXX(.(.(.|.1X1X;XL.0.#.0.x.;X1X1X2X2X2X>XP.V.#.4.7.g.'.'. X).(.=.%.,   E { rXdXdXdXdXdXrX{ R       ",
"7X7X$XU j   q G @X3X<X<X,X}.}.{./.R.'.k.c.~.k.0.4.#.0.x.].1X1X1X2X1X].x.0.#.4.5.<.&.;.-.g.=.t.i.D R | 0XyXdXsXaXyXrXqX[ W j j j ",
"7X7X$XU j   q G F.<X:XOXE.E.E.u.t.,.r.r.i.i.3.3.>.#.0.x.;X1X1X1X[.1X].x.4.#.@.:.,.A A A e.e.i.D.[ { wXrXyXdXaXtX0X{ [ ] ' U U U ",
"7X7X$XU j   q F F.:X@XF.T D M N N b b N N N S O.@.#.0.x.;X1X[.[.[.`.c.h.4.#.@.g i 0 m m b b ` [ wXrXyXyXsXdXtX0X| R W ' T.$X$X$X",
"7X7X$XU j   q D F.#XF.F B % $ $ $ $ $ $ $ $ 9 s O.#.0.x.;X1X[.[.`.Q.s.7.4.#.O.s 5 $ $ $ $ $ ! } tXdXdXdXdXdXrX{ R   j Y.I.7X7X7X",
"7X7X%XI.J j C D T a.G b r # # $ $ $ $ $ $ $ 4 7 h O.>.M.k.~.k.f.;.t.t.>.+.O.s 7 * $ $ $ $ $ E | 0XrXrXrXrXrX0X{ ( j U I.&X7X7X7X",
"7X7X&X$XI.U K I D D n 0 * . # # % $ $ $ $ $ * e 7 s g F F i.i.i.A A H Z s s 7 5 * $ $ $ $ $ ; Q | { { { T.} | ' ' Y.I.T.&X7X7X7X",
"7X7X6X&X%X$XU.K m = = O O . . # # $ $ $ $ $ $ * 4 4 9 w t N n n n n 0 9 e 5 4 * - $ $ $ $ $ - - ; R R E R R J U T.T.%X&X6X7X7X7X",
"7X7X7X7X7X7X$XU j           . . # $ $ # $ $ $ $ $ $ $ $ $ $ $ $ # $ $ $ $ $ $ $ % $ $ $ $ $ # # .           j U T.7X7X7X7X7X7X7X",
"7X7X7X7X7X7X%XI.J j j j j j j - % # $ * 4 5 5 e e e e e e e e e e e e e e e e e 5 5 4 * % # $ = $ j j j j j J Y.&X7X7X7X7X7X7X7X",
"7X7X7X7X7X7X&X$XI.U U Y.U U V j & # & 4 7 s s f g f ^ f f f f f f f S f f f f s s s 7 5 & . $ j J Y.' J Y.Y.I.$X&X7X7X7X7X7X7X7X",
"7X7X7X7X7X7X6X&X%X$X$X$X$XT.Y J = . * 6 u O.+.+.b.n.B.n.n.n.n.n.n.n.n.n.B.n.b.+.+.O.u 6 X . = J Y.T.%XT.$X$X%X&X6X7X7X7X7X7X7X7X",
"7X7X7X7X7X7X7X7X7X7X7X7X7X7X$XU j   X 8 h #.#.C.V.V.V.V.V.V.V.V.V.V.V.V.V.V.C.8.#.#...8 @   j U T.7X7X7X7X7X7X7X7X7X7X7X7X7X7X7X",
"7X7X7X7X7X7X7X7X7X7X7X7X7X7X$XU j   & 8 g #.8.B.B.V.B.m.n.b.+.n.b.b.n.m.B.Z.V.B.B.#.g 8 +   j U %X7X7X7X7X7X7X7X7X7X7X7X7X7X7X7X",
"7X7X7X7X7X7X7X7X7X7X7X7X7X7X$XU j   & 7 g 8.M.M.M.Z.M.b.f s s s s s f b.M.Z.Z.M.m.m.g w O   j U T.7X7X7X7X7X7X7X7X7X7X7X7X7X7X7X",
"7X7X7X7X7X7X7X7X7X7X7X7X7X7X$XU j   + w F M.M.M.S.S.N.S y X 4 X 6 * w d N.S.S.M.S.M.F w +   j U %X7X7X7X7X7X7X7X7X7X7X7X7X7X7X7X",
"7X7X7X7X7X7X7X7X7X7X7X7X7X7X$XU j   * B F A.A.M.A.A.F t &           & t F A.A.A.A.A.F t =   j U %X7X7X7X7X7X7X7X7X7X7X7X7X7X7X7X",
"7X7X7X7X7X7X7X7X7X7X7X7X7X7X%XI.J j v N S F F / F / S N v j j j j j v B S F F F F F D N j j J I.%X7X7X7X7X7X7X7X7X7X7X7X7X7X7X7X",
"7X7X7X7X7X7X7X7X7X7X7X7X7X7X&X$XT.U I V N n t t w t B V J U U U U U J V B t t t t t N V Y.Y.I.I.&X7X7X7X7X7X7X7X7X7X7X7X7X7X7X7X",
"7X7X7X7X7X7X7X7X7X7X7X7X7X7X6X&X%X$XY J v & & & * & v I U.$X$X$X$X$XT.I v & & & & * v J I.I.&X&X6X7X7X7X7X7X7X7X7X7X7X7X7X7X7X7X",
"7X7X7X7X7X7X7X7X7X7X7X7X7X7X7X7X7X7X$XU j           j U $X7X7X7X7X7X$XU j           j Y.I.7X7X7X7X7X7X7X7X7X7X7X7X7X7X7X7X7X7X7X",
"7X7X7X7X7X7X7X7X7X7X7X7X7X7X7X7X7X7X%XI.J j j j j j J I.%X7X7X7X7X7X%XU.J j j j j j J I.%X7X7X7X7X7X7X7X7X7X7X7X7X7X7X7X7X7X7X7X",
"7X7X7X7X7X7X7X7X7X7X7X7X7X7X7X7X7X7X&X$XI.U U U U U I.$X&X7X7X7X7X7X&X$XI.U U U Y.Y.I.T.&X7X7X7X7X7X7X7X7X7X7X7X7X7X7X7X7X7X7X7X",
"7X7X7X7X7X7X7X7X7X7X7X7X7X7X7X7X7X7X6X&X%X$X$X$X$X$X%X&X6X7X7X7X7X7X6X&X%X$X$X$X%XT.&X&X6X7X7X7X7X7X7X7X7X7X7X7X7X7X7X7X7X7X7X7X",
"7X7X7X7X7X7X7X7X7X7X7X7X7X7X7X7X7X7X7X7X7X7X7X7X7X7X7X7X7X7X7X7X7X7X7X7X7X7X7X7X7X7X7X7X7X7X7X7X7X7X7X7X7X7X7X7X7X7X7X7X7X7X7X7X",
"7X7X7X7X7X7X7X7X7X7X7X7X7X7X7X7X7X7X7X7X7X7X7X7X7X7X7X7X7X7X7X7X7X7X7X7X7X7X7X7X7X7X7X7X7X7X7X7X7X7X7X7X7X7X7X7X7X7X7X7X7X7X7X7X",
"7X7X7X7X7X7X7X7X7X7X7X7X7X7X7X7X7X7X7X7X7X7X7X7X7X7X7X7X7X7X7X7X7X7X7X7X7X7X7X7X7X7X7X7X7X7X7X7X7X7X7X7X7X7X7X7X7X7X7X7X7X7X7X7X",
"7X7X7X7X7X7X7X7X7X7X7X7X7X7X7X7X7X7X7X7X7X7X7X7X7X7X7X7X7X7X7X7X7X7X7X7X7X7X7X7X7X7X7X7X7X7X7X7X7X7X7X7X7X7X7X7X7X7X7X7X7X7X7X7X"
};
