/* XPM */
static char *char_front[] = {
/* columns rows colors chars-per-pixel */
"64 64 227 2 ",
"   c #151515",
".  c #1B1B1B",
"X  c #2E1E1A",
"o  c #1F2119",
"O  c #37281A",
"+  c #26281B",
"@  c #232323",
"#  c #2B2B2B",
"$  c #2D2A26",
"%  c #372A26",
"&  c #343624",
"*  c #353535",
"=  c #3C3C3C",
"-  c #3D3834",
";  c #4B3716",
":  c #403019",
">  c #423B1D",
",  c #532E1C",
"<  c #6F341D",
"1  c #492D2D",
"2  c #422C2A",
"3  c #592C2A",
"4  c #4A3729",
"5  c #483834",
"6  c #543E31",
"7  c #573B3B",
"8  c #573829",
"9  c #632E2E",
"0  c #643925",
"q  c #763725",
"w  c #6B3131",
"e  c #763736",
"r  c #3C4525",
"t  c #6A4B1A",
"y  c #7B5B1D",
"u  c #72501F",
"i  c #4E4820",
"p  c #49482C",
"a  c #51432A",
"s  c #574525",
"d  c #5B5624",
"f  c #5A4B32",
"g  c #564A3A",
"h  c #595931",
"j  c #4D4F35",
"k  c #695427",
"l  c #765929",
"z  c #684B36",
"x  c #74533F",
"c  c #755B37",
"v  c #6E4D2E",
"b  c #5A6931",
"n  c #69682C",
"m  c #766527",
"M  c #7A782D",
"N  c #646636",
"B  c #79653D",
"V  c #637435",
"C  c #6D7933",
"Z  c #454545",
"A  c #4B4B4B",
"S  c #4C4944",
"D  c #585745",
"F  c #525252",
"G  c #5A5A5A",
"H  c #5A5353",
"J  c #554747",
"K  c #7A4545",
"L  c #685B47",
"P  c #6C5553",
"I  c #735655",
"U  c #6F5146",
"Y  c #5E644F",
"T  c #776547",
"R  c #6A7748",
"E  c #6F6F4F",
"W  c #737466",
"Q  c #757575",
"!  c #7B7B7B",
"~  c #696666",
"^  c #91391F",
"/  c #863232",
"(  c #8C3636",
")  c #963635",
"_  c #8B3A26",
"`  c #A53535",
"'  c #825918",
"]  c #97691C",
"[  c #89631D",
"{  c #B87B19",
"}  c #A1721F",
"|  c #835628",
" . c #8E4F33",
".. c #A6463B",
"X. c #AD5333",
"o. c #8B6524",
"O. c #996826",
"+. c #877C2A",
"@. c #89762A",
"#. c #866736",
"$. c #966D38",
"%. c #9A7635",
"&. c #9F7228",
"*. c #A8772A",
"=. c #B86637",
"-. c #A77C3A",
";. c #B37330",
":. c #C37E39",
">. c #9A4744",
",. c #885445",
"<. c #9A5947",
"1. c #8A5353",
"2. c #874E4E",
"3. c #B74949",
"4. c #A75849",
"5. c #B95946",
"6. c #A35151",
"7. c #AC5049",
"8. c #93674D",
"9. c #9A6549",
"0. c #8A7140",
"q. c #8A704E",
"w. c #847B55",
"e. c #8F704F",
"r. c #B26D4D",
"t. c #89786D",
"y. c #AC7370",
"u. c #C56B52",
"i. c #CD7464",
"p. c #768B3C",
"a. c #78873B",
"s. c #6E813A",
"d. c #798C45",
"f. c #BD811E",
"g. c #968837",
"h. c #998E2E",
"j. c #BF8220",
"k. c #BB842F",
"l. c #B68539",
"z. c #AC8E35",
"x. c #BFAF35",
"c. c #BCA43C",
"v. c #EE9D1A",
"b. c #CB8C2B",
"n. c #C58725",
"m. c #C58B37",
"M. c #CB9339",
"N. c #D99939",
"B. c #C6B53B",
"V. c #EBAF36",
"C. c #F8E23F",
"Z. c #9C8A4B",
"A. c #BB8A46",
"S. c #A79C4A",
"D. c #AA8856",
"F. c #B48C4C",
"G. c #89A344",
"H. c #94AF48",
"J. c #9EBC4C",
"K. c #858475",
"L. c #99876C",
"P. c #A78664",
"I. c #B08662",
"U. c #B4946B",
"Y. c #BEA36E",
"T. c #C89748",
"R. c #D39B47",
"E. c #C49D57",
"W. c #CD884C",
"Q. c #DCA547",
"!. c #CEB648",
"~. c #EBAA4A",
"^. c #E4A546",
"/. c #F0AD4D",
"(. c #EDB758",
"). c #FAB656",
"_. c #F5B555",
"`. c #E9AA58",
"'. c #CA966A",
"]. c #D6AB66",
"[. c #CFAC71",
"{. c #E9B867",
"}. c #E5BA76",
"|. c #E8B069",
" X c #E09F40",
".X c #A7C750",
"XX c #B1D354",
"oX c #D0C046",
"OX c #FDC969",
"+X c #FFD27A",
"@X c #F3C978",
"#X c #E6CB48",
"$X c #838383",
"%X c #8D8D8D",
"&X c #8B8D85",
"*X c #9A9A9A",
"=X c #948F87",
"-X c #AA9589",
";X c #B1A798",
":X c #A7A7A7",
">X c #A9A9A9",
",X c #BDBDBD",
"<X c #B4B4B4",
"1X c #B9AAA3",
"2X c #D0B58B",
"3X c #EABD8D",
"4X c #CAB9A9",
"5X c #D29A9A",
"6X c #FFD888",
"7X c #FFDE97",
"8X c #ECCA8C",
"9X c #E6D0B5",
"0X c #EDD3AF",
"qX c #FFE4A5",
"wX c #CFC0A7",
"eX c #C5C5C5",
"rX c #CBCBCB",
"tX c #D6D6D6",
"yX c #DCDCDC",
"uX c #DAD0C3",
"iX c #E9E2DA",
"pX c #F0E2CF",
"aX c #E2E2E2",
"sX c #EBEBEB",
"dX c #F4F4F3",
"fX c #FEFEFE",
"gX c #E8CCCC",
/* pixels */
"XXXXXXXXXXXXXXXXXXXXXXXXXXXXXXXXXXXXXXXXXXG.V r                           r V G.XXXXXXXXXXXXXXXXXXXXXXXXXXXXXXXXXXXXXXXXXXXXXXXX",
"XXXXXXXXXXXXXXXXXXXXXXXXXXXXXXXXXX.XJ.H.G.p.M d i i i i i i i i i i i i i d C p.G.H.J..XXXXXXXXXXXXXXXXXXXXXXXXXXXXXXXXXXXXXXXXX",
"XXXXXXXXXXXXXXXXXXXXXXXXXXXXXXXXXXJ.G.p.V s.s.M +.M h.M h.M M g.+.+.+.+.+.a.M n V p.G.J.XXXXXXXXXXXXXXXXXXXXXXXXXXXXXXXXXXXXXXXX",
"XXXXXXXXXXXXXXXXXXXXXXXXXXXXXXXXXXH.p.b r d +.h.x.x.x.x.x.x.x.x.x.x.x.x.x.h.a.d r b p.H.XXXXXXXXXXXXXXXXXXXXXXXXXXXXXXXXXXXXXXXX",
"XXXXXXXXXXXXXXXXXXXXXXXXXXXXXXXXXXG.V r   i +.B.C.C.C.C.C.C.C.C.C.C.C.C.C.x.h.;   > V G.XXXXXXXXXXXXXXXXXXXXXXXXXXXXXXXXXXXXXXXX",
"XXXXXXXXXXXXXXXXXXXXXXXXXX.XJ.H.G.p.n d ; t @.z.B.B.B.oXoXoXoXoXoXoX!.!.B.h.h.t ; d n p.G.H.J..XXXXXXXXXXXXXXXXXXXXXXXXXXXXXXXXX",
"XXXXXXXXXXXXXXXXXXXXXXXXXXJ.G.p.V n m y y [ @.+.h.g.g.S.S.S.S.z.S.S.g.g.g.h.[ [ y y m n V a.G..XXXXXXXXXXXXXXXXXXXXXXXXXXXXXXXXX",
"XXXXXXXXXXXXXXXXXXXXXXXXXXH.p.b r d y ] f.} o.m d N T R Z.E K.w.w.R R h d m [ } f.] y d r b p.H.XXXXXXXXXXXXXXXXXXXXXXXXXXXXXXXX",
"XXXXXXXXXXXXXXXXXXXXXXXXXXG.V r   ; ' { v.f.o.s # * Z A G G G G H A j * # s o.{ v.{ ' ;   r V G.XXXXXXXXXXXXXXXXXXXXXXXXXXXXXXXX",
"XXXXXXXXXXXXXXXXXX.XJ.H.G.a.n d ; t [ *.b.*.#.f * Z Z F G G G G G F Z = = f #.*.b.*.[ t ; d n p.G.H.J..XXXXXXXXXXXXXXXXXXXXXXXXX",
"XXXXXXXXXXXXXXXXXXJ.G.p.V n m y ' [ o.%.-.#.T g Z Z A F G G G G G F F Z Z g T 0.-.%.O.o.' y m n V p.G.J.XXXXXXXXXXXXXXXXXXXXXXXX",
"XXXXXXXXXXXXXXXXXXH.p.b r d y ] { *.%.$.T T L H A F F G F G G G G G F F A F L L T #.&.*.{ ] y d r b p.H.XXXXXXXXXXXXXXXXXXXXXXXX",
"XXXXXXXXXXXXXXXXXXG.V r   ; ' { v.b.-.T G G G G G G G G G G G F G G G G G G G G G T -.n.v.{ ' ;   > V G.XXXXXXXXXXXXXXXXXXXXXXXX",
"XXXXXXXXXX.XJ.H.G.M n i O 0 ' ] f.*.#.L A F F G G G G G G G G G G G G G G F F F F L #.*.f.O.y 0 O i n a.G.H.J..XXXXXXXXXXXXXXXXX",
"XXXXXXXXXXJ.G.p.V N k 0 < < u ' o.l z J Z Z F F G G G G G G G G G G G F G F F A Z g k c o.| u < < < d k V p.G.J.XXXXXXXXXXXXXXXX",
"XXXXXXXXXXH.p.b r a 0 < ^ _ u q s 6 5 = * = Z A G G G G G G G G G G G G G F Z = - - p a s t q ^ ^ u 0 i r b p.H.XXXXXXXXXXXXXXXX",
"XXXXXXXXXXG.V r   O < ^ ` ^ q 1 # # # # # * Z A F G G G G G G G G G G H G A Z * # # # # $ 4 e ^ X.^ < O   r V G.XXXXXXXXXXXXXXXX",
"XXXXXXXXXXG.V r   X 3 < ^ ^ 0 4 # % % 5 1 7 7 J P P P I I I I I I P P P P U 7 7 1 1 % % # 1 0 q ^ < , X   r V G.XXXXXXXXXXXXXXXX",
"XXXXXXXXXXG.V r   X , 3 _ 0 1 % # % 1 3 9 e K K K 2.2.2.1.1.1.1.1.2.2.2.K K e e w 3 1 * # % 3 9 q 3 , X   r V G.XXXXXXXXXXXXXXXX",
"XXXXXXXXXXG.V r   . X % 4 1 2 % # 2 3 w / ( ( ( ( >.>.6.6.6.6.6.6.6.>.>.( ( ) ) / w 3 1 # % % 2 3 O X X   r V G.XXXXXXXXXXXXXXXX",
"XXXXXXXXXXG.V r   . @ # # # # # @ 3 9 / ` ` ` ` ` ` 3.3.3.3.3.3.3.3.` ` ` ` ` ` ` / 9 1 $ $ # # $ @ @ .   4 V G.XXXXXXXXXXXXXXXX",
"XX.XJ.H.G.d.R Y F H H G G H J Z 1 9 q / ` ) ) / / ( ( >.6.6.u.r.i.i.u.u.5.X.X.` ` ( e 9 1 2 % % @ @ . .   r V G.XXXXXXXXXXXXXXXX",
"XXJ.G.d.V R W K.%X%X%X*X*X$X1.K 9 e / ) ` ) / e w w w e K 2.r.'.|.'.'.i.i.u.5.` ` ) / e 9 3 1 O @ . . .   r V G.XXXXXXXXXXXXXXXX",
"XXH.d.b r ~ d.;XeXeXeXeXeX1X-X1./ ) ) ` ` / e 9 1 1 1 7 1 I t.Y.3X3X|.|._.W.u...` ` ) / / 9 3 X .   .     r V G.XXXXXXXXXXXXXXXX",
"XXH.V r   F $XeXfXfXfXfXfXgX5Xi.` ` ` ` ` / w 1 # # # # # H L.2X0X7X6X+XOX`.i.5.` ` ` ` ` / 9 X           r V G.XXXXXXXXXXXXXXXX",
"d.d.d.Y F ! :XtXfXsXaXtXeX1X-Xu.X.....) / w 3 1 # * * 5 g I L.[.8X3X[.[.E.F.r.5.>.X.X.=.X. .0 :   o + & r b p.H.XXXXXXXXXXXXXXXX",
"V R W d.%X:XeXaXfXaXeX:X%XL.D.A.M.;.X.v 9 3 1 % # 5 5 D I e.P.Y.2X[.I.Z.$.0.-.9.4.r.u.:.M.&.v &   + r h V p.G.J.XXXXXXXXXXXXXXXX",
"r Y $X:XeXtXaXsXfXtX:X! A T Z.c.~.m.$.v 1 1 - # # 5 g T e.e.P.U.'.P.q.U p z ,.9.r.A.T.!.V.l.o.4   & j C G.H.J..XXXXXXXXXXXXXXXXX",
"  F $XeXfXfXfXfXfXeX%XF   i +.x.C.B.g.h # # % # # 5 L e.I.I.I.I.I.q.z &   % z q.I.E.!.#XC.x.h.i   r s.p.XXXXXXXXXXXXXXXXXXXXXXXX",
"  F %XeXfXfXfXdXdX,X$XA   & n h.B.h.+.k a a g D P E e.D.'.'.E.'.'.D.q.L g L 0.e.F.F.F.T.x.h.d >   & b s.G.H.J..XXXXXXXXXXXXXXXXX",
"  F %XeXfXfXdXdXsX<X$XA   O i n h.@.m m l c q.w.L.L.Y.Y.].].].].].Y.U.L.t.w.e.F.l.z.} h.a.y i &   + r b V p.G.J.XXXXXXXXXXXXXXXX",
"  A %XeXfXdXsXsXaX>X! A   + O > > d y [ O.z.F.Y.2X[.}.}.{.{.{.{.{.|.}.[.[.[.F.T.k.} m d i > + o   o + + r b p.H.XXXXXXXXXXXXXXXX",
"  F %XeXfXdXsXaXtX:XQ A           O t ] j.M.{.8XqX7X6X+XOXOXOXOXOX+X6X7XqX8X].N.:.] t :                   r V G.XXXXXXXXXXXXXXXX",
"  F $X,XdXdXaXyXtX:XQ Z   o O O ; t [ z.M.R.(.@X7X8X}.].E.E.E.E.E.].}.8X7X@X].Q.n.&.[ k 4 4 5 = = - - 5 4 h C d.G.H.J..XXXXXXXXX",
"  A $X<XsXaXaXyXyX:XQ S   X ; t ' ] f.k.N.~.(.@X6X}.'.D.0.0.$.0.#.D.E.@X6X@X(.Q.M.m.-.$.T T P P ~ P E L B B B N V p.G.J.XXXXXXXX",
"  Z ! >XaXaXtXyXtX:XW j   O t [ { n.N.N.~.(.OXOX+X].S.T a p a a p T S.[.+XOX(.Q.N.T.T.A.D.P.L.K.$XK.L.P.D.e.T j r b p.H.XXXXXXXX",
"  Z Q >XyXtXtXyXtX:XQ Z   ; ' { v.v.V.).).).OXOXOXE.$.p           a 0.E.OXOX(.~.^.^.`.].}.[.;X1X:X;X2X2X].D.q.4   r V G.XXXXXXXX",
"r D W &X>X<X,XrXtX<X%X~ S z #.&.j.b.N./.)._._.(.#XE.%.B 4 ; i 4 4 c %.T.(.(.~.~.Q.`.|.3X3X3XwX4X,X4XwX3X3XU.T 5   r V G.XXXXXXXX",
"b R E W Q %X:X,XyXeX:X%X! W q.#.] h.m.^.)._./.~.Q.T.l.%.#.#.| #.l %.z.M.Q.Q.V.Q.^.`.3X8X9X9XuXuXrXuXuX9X9X;Xt.p   r V G.XXXXXXXX",
"d.d.R Y Z ~ %X<XtXrX,X<X>X=XW Y s #.r.R.)./.^.N.M.M.M.T.A.W.A.-.l.l.m.M.b.N.N.Q.^.|.3X0XpXiXiXaXaXaXiXiXiX1Xt.S   r V G.XXXXXXXX",
"XXH.s.r   Z d.>XtXtXtXtXtX>X$XF $ g 0.T.).~.N.b.j.b.N.~.)._./.~.^.N.N.n.f.b.b. X^.{.8XpXdXdXdXdXdXdXdXdXdX,X$XA   r V G.XXXXXXXX",
"XXH.p.b r D Q %X:X>X>X:X:X%X~ A # z #.A./.R.m.;.} ;.M.^.)._./.~.^.M.m.*.O.*.k.M.N.|.3XuXaXyXyXyXtXyXyXyXaX<X! A   r V G.XXXXXXXX",
"XXJ.G.p.b R Y Q Q Q Q Q Q ~ A = # a #.l.N.m.*.O.l %.A.R.)././.~.^.M.;.o.l o.*.;.b.].[.wXrXrX,X,X<X,X,XrXrX*XQ Z   r V G.XXXXXXXX",
"XX.XJ.H.d.d.R D Z Z Z Z Z Z * * # a l *.b.-.O.k 8 c -.R.)._./.~.^.m.%.c 6 l o.*.b.F.[.1X,X<X>X:X*X*X:X<X,X*X~ =   r V G.XXXXXXXX",
"XXXXXXXXXXd.s.r           . @ @ $ 8 l O.n.O.l 8 # f 0.T.)._./.~.^.l.#.f # a u O.j.A.U.Y.:X*X%X$XQ $X%X*X>X$XG *   r V G.XXXXXXXX",
"XXXXXXXXXXJ.p.s.r r r r r & & $ @ 4 u [ { O.| w 6 x $.W.~.^. XN.Q.;.$.z 1 z | O.{ A.I.-X>X*X%X$XQ $X*X*X:X$X~ =   r V G.XXXXXXXX",
"XXXXXXXXXXJ.p.p.V V V V V b p $ . 2 <  .X.X. . .e ,.=.m.N.N.N.N.N.;.;. .e  . .X.X.r.I.-X>X*X%X$XQ $X%X*X:X$XG *   r V G.XXXXXXXX",
"XXXXXXXXXX.XJ.J.G.G.G.G.G.s.b & . : 0 q X.....>.>.<.=.:.b.b.b.b.n.;.=.4.>.>.>.....4.y.-X>X*X%X%XQ &X%X*X:X$X~ =   r V G.XXXXXXXX",
"XXXXXXXXXXXXXXXXXXXXXXXXXXH.s.r   O 9 / ` ` ` 3.3.5.:.=.n.{ n.{ { ;.:.5.3.3.3.` ` 6.y.-X:X*X%X$XQ $X*X*X>X$XG =   r V G.XXXXXXXX",
"XXXXXXXXXXXXXXXXXXXXXXXXXXd.s.r   X 3 / ) ` 7.7.5.4.X.O.] ] ] ] ] O.X.4.7.7.7...>.1.1.t.$X! Q ~ G ~ Q ! $XQ Y D r b p.H.XXXXXXXX",
"XXXXXXXXXXXXXXXXXXXXXXXXXXp.b r   O 9 e 6.<.4.4.4.<. .l t t t t u u  .<.4.4.<.<.>.<.1.P G G F A Z A F F G Y Y R V d.G.J.XXXXXXXX",
"XXXXXXXXXXXXXXXXXXXXXXXXXXp.s.r   % 6 v <.<.<.<.9.,.v 8 : : : O : 0 z ,.9.<.<.<.<.,.J j = = * # # * * * = j b d.G.H.J..XXXXXXXXX",
"XXXXXXXXXXXXXXXXXXXXXXXXXXd.p.r   % 6 x 8.8.8.8.8.U 6 %           % 6 x 8.8.8.8.8.U 6 %                   r V G.XXXXXXXXXXXXXXXX",
"XXXXXXXXXXXXXXXXXXXXXXXXXXJ.p.s.r p f z x x x x x z f p r r r r & p f z x x x x x z f p r r r r r r r r r b p.H.XXXXXXXXXXXXXXXX",
"XXXXXXXXXXXXXXXXXXXXXXXXXXJ.p.p.V N h f 6 6 6 6 a f h b V V V V V b h f 6 6 6 6 6 f h b V V V V V V V V V p.G.J.XXXXXXXXXXXXXXXX",
"XXXXXXXXXXXXXXXXXXXXXXXXXX.XJ.J.G.s.b p % % % % % p N a.G.G.G.G.G.a.N p % % % O % p N s.G.G.G.G.G.G.G.G.G.H.J..XXXXXXXXXXXXXXXXX",
"XXXXXXXXXXXXXXXXXXXXXXXXXXXXXXXXXXG.V r           r V G.XXXXXXXXXXG.V r           r V G.XXXXXXXXXXXXXXXXXXXXXXXXXXXXXXXXXXXXXXXX",
"XXXXXXXXXXXXXXXXXXXXXXXXXXXXXXXXXXH.p.b r r r r r b p.H.XXXXXXXXXXH.p.b r r r r r b p.H.XXXXXXXXXXXXXXXXXXXXXXXXXXXXXXXXXXXXXXXX",
"XXXXXXXXXXXXXXXXXXXXXXXXXXXXXXXXXXJ.G.p.V V V V V p.G.J.XXXXXXXXXXJ.G.p.V V V V V p.G.J.XXXXXXXXXXXXXXXXXXXXXXXXXXXXXXXXXXXXXXXX",
"XXXXXXXXXXXXXXXXXXXXXXXXXXXXXXXXXX.XJ.H.G.G.G.G.G.H.J..XXXXXXXXXXX.XJ.H.G.G.G.G.G.H.J..XXXXXXXXXXXXXXXXXXXXXXXXXXXXXXXXXXXXXXXXX",
"XXXXXXXXXXXXXXXXXXXXXXXXXXXXXXXXXXXXXXXXXXXXXXXXXXXXXXXXXXXXXXXXXXXXXXXXXXXXXXXXXXXXXXXXXXXXXXXXXXXXXXXXXXXXXXXXXXXXXXXXXXXXXXXX",
"XXXXXXXXXXXXXXXXXXXXXXXXXXXXXXXXXXXXXXXXXXXXXXXXXXXXXXXXXXXXXXXXXXXXXXXXXXXXXXXXXXXXXXXXXXXXXXXXXXXXXXXXXXXXXXXXXXXXXXXXXXXXXXXX",
"XXXXXXXXXXXXXXXXXXXXXXXXXXXXXXXXXXXXXXXXXXXXXXXXXXXXXXXXXXXXXXXXXXXXXXXXXXXXXXXXXXXXXXXXXXXXXXXXXXXXXXXXXXXXXXXXXXXXXXXXXXXXXXXX",
"XXXXXXXXXXXXXXXXXXXXXXXXXXXXXXXXXXXXXXXXXXXXXXXXXXXXXXXXXXXXXXXXXXXXXXXXXXXXXXXXXXXXXXXXXXXXXXXXXXXXXXXXXXXXXXXXXXXXXXXXXXXXXXXX"
};
