/* XPM */
static char *char_left[] = {
/* columns rows colors chars-per-pixel */
"64 64 217 2 ",
"   c #151515",
".  c #1C1A19",
"X  c #231E16",
"o  c #271E1B",
"O  c #391D1D",
"+  c #351F19",
"@  c #1F2119",
"#  c #28271A",
"$  c #32261A",
"%  c #38261A",
"&  c #3E371D",
"*  c #242424",
"=  c #2B2B2B",
"-  c #2D2520",
";  c #3D2322",
":  c #342B23",
">  c #3A2D21",
",  c #382826",
"<  c #3E3323",
"1  c #313820",
"2  c #39312A",
"3  c #353535",
"4  c #3C3C3C",
"5  c #422E1A",
"6  c #44271E",
"7  c #4B3716",
"8  c #403018",
"9  c #4C371A",
"0  c #513A1A",
"q  c #5C381C",
"w  c #562A1D",
"e  c #6E331D",
"r  c #462B27",
"t  c #5D2525",
"y  c #592D29",
"u  c #44342A",
"i  c #4F3229",
"p  c #493B2B",
"a  c #473A26",
"s  c #573827",
"d  c #4C3632",
"f  c #543E31",
"g  c #663828",
"h  c #733827",
"j  c #783A28",
"k  c #693432",
"l  c #763B3A",
"z  c #642C2C",
"x  c #3C4525",
"c  c #4D421C",
"v  c #7A5B1D",
"b  c #6E4B1B",
"n  c #4D4921",
"m  c #49462A",
"M  c #5C4827",
"N  c #51422B",
"B  c #564627",
"V  c #4F5B2C",
"C  c #5B5525",
"Z  c #4B4433",
"A  c #584A31",
"S  c #544737",
"D  c #5C5732",
"F  c #4E553D",
"G  c #644A2B",
"H  c #764227",
"J  c #665327",
"K  c #755827",
"L  c #654A36",
"P  c #695031",
"I  c #6A5738",
"U  c #74533F",
"Y  c #785836",
"T  c #774A36",
"R  c #58602E",
"E  c #5A6931",
"W  c #68692E",
"Q  c #616233",
"!  c #6D6A38",
"~  c #7A6838",
"^  c #637435",
"/  c #6C7B35",
"(  c #766E29",
")  c #4A4A4A",
"_  c #444444",
"`  c #535353",
"'  c #5A5A5A",
"]  c #5A5450",
"[  c #534B44",
"{  c #6B5844",
"}  c #755A4B",
"|  c #5F6353",
" . c #636A43",
".. c #7B6546",
"X. c #786758",
"o. c #767676",
"O. c #6E6B68",
"+. c #91391F",
"@. c #802C2C",
"#. c #963F24",
"$. c #883734",
"%. c #843C24",
"&. c #A53535",
"*. c #835B19",
"=. c #98691D",
"-. c #83621C",
";. c #A16E1C",
":. c #B87B19",
">. c #864B3B",
",. c #8D522F",
"<. c #A44D27",
"1. c #A84939",
"2. c #B8583A",
"3. c #B24F2A",
"4. c #8D6423",
"5. c #866522",
"6. c #877C2A",
"7. c #857325",
"8. c #866539",
"9. c #926E3E",
"0. c #936638",
"q. c #957231",
"w. c #AA6622",
"e. c #B87626",
"r. c #A37A39",
"t. c #B16B2F",
"y. c #D4711E",
"u. c #C75B20",
"i. c #C9753B",
"p. c #954343",
"a. c #825D45",
"s. c #B84A4A",
"d. c #B95743",
"f. c #A75648",
"g. c #896A4B",
"h. c #93684C",
"j. c #887248",
"k. c #9A7949",
"l. c #847957",
"z. c #987A57",
"x. c #8C6B51",
"c. c #A77945",
"v. c #B06F4E",
"b. c #8B7A6A",
"n. c #C97648",
"m. c #C66A46",
"M. c #768B3C",
"N. c #76853A",
"B. c #758841",
"V. c #BD811E",
"C. c #998934",
"Z. c #BF8220",
"A. c #BD8725",
"S. c #B39036",
"D. c #BFAF35",
"F. c #BDA22E",
"G. c #EE9D1A",
"H. c #E1871C",
"J. c #C88A28",
"K. c #C48B37",
"L. c #D59033",
"P. c #E79D2F",
"I. c #CDA939",
"U. c #F2AA2C",
"Y. c #E3B73C",
"T. c #F8E23F",
"R. c #F4C932",
"E. c #9D8558",
"W. c #A8884B",
"Q. c #BC8A4B",
"!. c #A99E4C",
"~. c #AE8759",
"^. c #A78255",
"/. c #B78954",
"(. c #B69154",
"). c #89A344",
"_. c #94AF48",
"`. c #9EBC4C",
"'. c #928577",
"]. c #97806A",
"[. c #B08561",
"{. c #B69564",
"}. c #B39B78",
"|. c #A78C6B",
" X c #CC9745",
".X c #C89A59",
"XX c #CD914C",
"oX c #E49A55",
"OX c #D4A954",
"+X c #F3B248",
"@X c #C99769",
"#X c #C8A667",
"$X c #D7AC6D",
"%X c #E2AD6E",
"&X c #ECBA6B",
"*X c #A7C750",
"=X c #B1D354",
"-X c #D0C046",
";X c #FBC057",
":X c #E6CB48",
">X c #FFCC6B",
",X c #FFD27A",
"<X c #868686",
"1X c #979797",
"2X c #9B8F85",
"3X c #A2968A",
"4X c #ADA293",
"5X c #A9A9A9",
"6X c #A6A4A3",
"7X c #BBBAB8",
"8X c #C5B081",
"9X c #D8B583",
"0X c #EBBA87",
"qX c #F4D18D",
"wX c #FFE4A5",
"eX c #CFCECC",
"rX c #ECECEB",
/* pixels */
"=X=X=X=X=X=X=X=X=X=X=X=X=X=X=X=X=X=X=X=X=X=X=X=X=X=X=X=X=X=X=X=X=X=X=X=X=X=X=X=X=X=X=X=X=X=X=X=X=X=X=X=X=X=X=X=X=X=X=X=X=X=X=X=X",
"=X=X=X=X=X=X=X=X=X=X=X=X=X*X`._.).).).).).).).).).).).).M.).*X*X=X=X=X=X=X=X=X=X=X=X=X=X=X=X=X=X=X=X=X=X=X=X=X=X=X=X=X=X=X=X=X=X",
"=X=X=X=X=X=X=X=X=X=X=X=X=X`.).M.^ ^ E N.^ ^ ^ ^ E N.^ ^ N.M.).`.=X=X=X=X=X=X=X=X=X=X=X=X=X=X=X=X=X=X=X=X=X=X=X=X=X=X=X=X=X=X=X=X",
"=X=X=X=X=X=X=X=X=X=X=X=X=X_.M.E x x x x x x x x x x x x x E M.`.=X=X=X=X=X=X=X=X=X=X=X=X=X=X=X=X=X=X=X=X=X=X=X=X=X=X=X=X=X=X=X=X",
"=X=X=X=X=X=X=X=X=X=X=X=X=X).^ x                           x ^ M.=X=X=X=X=X=X=X=X=X=X=X=X=X=X=X=X=X=X=X=X=X=X=X=X=X=X=X=X=X=X=X=X",
"=X=X=X=X=X=X=X=X=X*X`._.).M.( R c c n n n n n n c c c c 7 C ( M._._.M.M.).`.`.*X=X=X=X=X=X=X=X=X=X=X=X=X=X=X=X=X=X=X=X=X=X=X=X=X",
"=X=X=X=X=X=X=X=X=X`.).M.^ / / 6.C.( ( C.C.( C.( N.7.-.v *.v v W N.N.N.E N.M.M.*X=X=X=X=X=X=X=X=X=X=X=X=X=X=X=X=X=X=X=X=X=X=X=X=X",
"=X=X=X=X=X=X=X=X=X_.M.E x W ( C.D.D.D.D.D.D.D.D.D.F.F.V.V.=.v C 1 1 x x 1 E M.`.=X=X=X=X=X=X=X=X=X=X=X=X=X=X=X=X=X=X=X=X=X=X=X=X",
"=X=X=X=X=X=X=X=X=X).^ x   n 6.D.T.T.T.T.T.T.T.T.T.R.R.U.G.:.v 9           x ^ ).=X=X=X=X=X=X=X=X=X=X=X=X=X=X=X=X=X=X=X=X=X=X=X=X",
"=X=X=X=X=X=X=X=X=X).^ x   c ( C.-X-X-X-X-X-X-XOX-XI.I.A.:.;.*.b & 7 7 7 7 C W M.)._.`.*X=X=X=X=X=X=X=X=X=X=X=X=X=X=X=X=X=X=X=X=X",
"=X=X=X=X=X=X=X=X=X).^ x   1 D C.!.!.!.!.!.!.!._.!.C.r.q.4.4.*.*.v v v v v v v W ^ M.).`.=X=X=X=X=X=X=X=X=X=X=X=X=X=X=X=X=X=X=X=X",
"=X=X=X=X=X=X=X=X=X).^ x   = Z  .B.X.E.X.B.b.X.E.B...! P M K 4.;.:.V.V.V.V.=.v C x E M._.=X=X=X=X=X=X=X=X=X=X=X=X=X=X=X=X=X=X=X=X",
"=X=X=X=X=X=X=X=X=X).^ x   * 3 ) ' ` ' ' ' ' ' ' ' ) _ 4 = M 4.A.G.G.G.G.G.:.*.7   x ^ ).=X=X=X=X=X=X=X=X=X=X=X=X=X=X=X=X=X=X=X=X",
"=X=X=X=X=X=X=X=X=X).^ x   * 3 ) ' ' ' ' ' ' ' ' ' ' ) 4 4 A K ;.V.V.V.V.V.;.*.b 7 C ( M.)._.`.*X=X=X=X=X=X=X=X=X=X=X=X=X=X=X=X=X",
"=X=X=X=X=X=X=X=X=X).^ x   * 3 ) ' ' ' ' ' ` ' ' ' ` ) ) _ S L K -.4.4.4.4.4.-.*.*.v v W ^ M.).`.=X=X=X=X=X=X=X=X=X=X=X=X=X=X=X=X",
"=X=X=X=X=X=X=X=X=X).^ x   * 3 ) ' ' ' ' ' ' ' ' ' ` ` ` ) [ F S b c C M M b 4.;.:.=.v C x E M._.=X=X=X=X=X=X=X=X=X=X=X=X=X=X=X=X",
"=X=X=X=X=X=X=X=X=X).^ x   * 3 ) ' ' ' ' ' ' ` ' ' ' ' ' ' ` _ 3 = = = = = M 4.V.G.:.*.7   x ^ ).=X=X=X=X=X=X=X=X=X=X=X=X=X=X=X=X",
"=X=X=X=X=X=X=X=X=X).^ x   * 3 ) ' ' ' ' ' ' ' ' ' ` ` ) ) _ 4 3 = = = = = N K =.V.=.*.e 6 n J N.)._.`.*X=X=X=X=X=X=X=X=X=X=X=X=X",
"=X=X=X=X=X=X=X=X=X).^ x   * 4 ) ' ` ' ' ' ' ' ' ' ` ` ) _ 4 3 3 = = = = = u M K =.*.b e e g J Q ^ M.).`.=X=X=X=X=X=X=X=X=X=X=X=X",
"=X=X=X=X=X=X=X=X=X).^ x   * 3 ) ' ' ' ' ' ' ' ' ' ` ) x 3 3 3 = = = = = = 2 a N M g e ,.+.e e 0 x E M._.=X=X=X=X=X=X=X=X=X=X=X=X",
"=X=X=X=X=X=X=X=X=X).^ x   * 3 ) ' ' ' ` ' ' ' ' ' ` _ 3 = = = = = = = = = = = = = i h #.3.+.e O   x ^ ).=X=X=X=X=X=X=X=X=X=X=X=X",
"=X=X=X=X=X=X=X=X=X).^ x   - d f } } } g...........Y I P M M M M B M M M M B s i i g h %.<.e w +   x ^ ).=X=X=X=X=X=X=X=X=X=X=X=X",
"=X=X=X=X=X=X=X=X=X).^ x   , i L >.0.h.r.c.r.r.C.r.r.q.q.4.4.4.4.4.4.4.4.5.-.K h h h h h h y 6 o   x ^ ).=X=X=X=X=X=X=X=X=X=X=X=X",
"=X=X=X=X=X=X=X=X=X).^ x   O t %.1.3.t.e.J.J.J.L.J.J.Z.Z.V.Z.V.V.V.V.V.V.y.w.w.<.<.%.h y i ; : .   x ^ ).=X=X=X=X=X=X=X=X=X=X=X=X",
"=X=X=X=X=X=X=X=X=X).^ x   % e +.3.u.y.H.G.G.G.G.G.G.G.G.G.G.G.G.G.G.G.G.G.H.y.u.&.<.j i : * * .   x N.M.=X=X=X=X=X=X=X=X=X=X=X=X",
"=X=X=X=X=X=X=X=X=X).^ x   6 h 0.i.i.L.P.U.U.U.U.U.U.H.J.V.Z.V.V.V.V.V.V.V.:.w.<.#.j z r = * * .   1 V N.)._.`.*X=X=X=X=X=X=X=X=X",
"=X=X=X=X=X=X=X=X=X).^ x   u } c.%XoXoX+XY.+X+X+X+XI.K.r.4.4.4.4.4.4.4.4.4.*.H H j z d r = * * .   @ x V ^ M.).`.=X=X=X=X=X=X=X=X",
"=X=X=X=X=X=X=X=X=X).^ x   Z g.}.0X&X&X&X;X;X;X;X;XXXS.7.M M M M M M M M M B B s d r , , = * @ .   @ @ & x E M._.=X=X=X=X=X=X=X=X",
"=X=X=X=X=X=X=X=X=X).^ x   S ].#XwXwXqX,X>X>X>X>X>X#Xk.I = = = = = = = = = = = = = = = = = * * .           x ^ ).=X=X=X=X=X=X=X=X",
"=X=X=X=X=X=X=X=X=X).^ x   Z X.}.qX0X%X#X.XOXOX%X&X.Xk.U u d N D D L S f d d d d d d d r r r ; ; : O O O O s Q N.)._.`.*X=X=X=X=X",
"=X=X=X=X=X=X=X=X=X).^ x   Z ..|.9X@X{.E.9.E.W..X$X/.v.>.k T Y 8.C.8.8.U l l l l l l l k k z z t t t t t t s C R ^ M.).`.=X=X=X=X",
"=X=X=X=X=X=X=X=X=X).^ x   3 { z.}.z.x.} m ! j.^..Xv.h.p.$.,.t.S.I.F.v.v.p.p.p.p.p.p.$.$.$.$.@.@.@.@.@.j @.h s n x E M._.=X=X=X=X",
"=X=X=X=X=X=X=X=X=X).^ x . 2 L g.[.x.L 2   2 L g.[.v.f.f.&.2.L.Y.T.:X Xn.s.s.s.s.s.s.s.&.&.&.&.&.&.&.&.&.&.@.t O   x ^ ).=X=X=X=X",
"=X=X=X=X=X=X=X=X=X).^ x   2 I z.@X^.x. .S I g.k./.v.v.s.d.XXXXOX:XOXXXn.s.s.s.m.m.d.2.2.d.1.1.$.j @.@.j j h y f x E M._.=X=X=X=X",
"=X=X=X=X=X=X=X=X=X).^ x   p ~ ^.$X{.{.|.l.z.k.W.Q.XXXX@X@X@XOXOXOX Xv.d.1.d.d.u.t.m.i.n.n.2.,.j t t t t t g G Q ^ M.).`.=X=X=X=X",
"=X=X=X=X=X=X=X=X=X).^ x   p ~ (.&X&X$X8X8X#X.XQ.r.XX@X%X0X0X$X#X.XQ.v.2.&.1.2.2.y.i.i.XXoXi.,.k O O O O O p Q / )._.`.*X=X=X=X=X",
"=X=X=X=X=X=X=X=X=X).^ x   N 9.(.>X,X,XwXwX,X$XI.Z.L.%XqXwXqX9X}.[.v.f.f.&.1.3.e.Z.L.L.+X+XQ.8.a           x ^ ).=X=X=X=X=X=X=X=X",
"=X*X`._.).).).).).N.V 1   < I W..X#X#X#X4X#X!.r.=.r.!.{.#X}.|.].x.a.>.$.@.#.<.t.Z.A.K.S. Xr.8.D < < x x x E M._.=X=X=X=X=X=X=X=X",
"=X`.).M.^ ^ ^ ^ ^ V x #   : N I j.j.l.E.b...~ K b K ~ ..].X.X.{ { f g y t j 4.;.Z.e.q.q.8.~ ( / ^ ^ ^ ^ ^ M.).`.=X=X=X=X=X=X=X=X",
"=X_.M.E x x x x x 1 # @   o : u n Z Z x S p p & & a p Z S Z p u 2 , ; % O q H ;.Z.;.4.b N D ( M.).).).).)._.`.*X=X=X=X=X=X=X=X=X",
"=X).^ x                                                                   8 b =.V.=.b &   x ^ ).=X=X=X=X=X=X=X=X=X=X=X=X=X=X=X=X",
"=X).^ x   * 3 4 ) _ 4 3 = 3 3 3 4 4 4 4 4 4 3 = = 3 2 u p p a p p 2 : o   % c b =.*.b n x E M._.=X=X=X=X=X=X=X=X=X=X=X=X=X=X=X=X",
"=X).^ x   = ) O.<Xo.' ` _ ) ` ' ' ' ' ' ' ' ` ) ) [ ] } ....Y ....D a -   X 8 c b J W W ^ M.).`.=X=X=X=X=X=X=X=X=X=X=X=X=X=X=X=X",
"=X).^ x   4 O.1X7X6X1Xo.' O.o.o.<X<X<X<X<Xo.o.O.' X.l.z.~.~.~.~.~.g.L <   X $ % 8 n E N.)._.`.*X=X=X=X=X=X=X=X=X=X=X=X=X=X=X=X=X",
"=X_.^ x   ) <X7XrXrX7X1Xo.<X1X1X6X5X5X6X5X1X1X<Xo.'.{.@X%X%X%X%X%X~...p           x ^ ).=X=X=X=X=X=X=X=X=X=X=X=X=X=X=X=X=X=X=X=X",
"=XM.^ x   ) <X5XeXeX6X2XO.b.'.3X4X4X4X4X4X2X'.b.O.b.|.@X$XoX$X$X$Xc.U p           x ^ ).=X=X=X=X=X=X=X=X=X=X=X=X=X=X=X=X=X=X=X=X",
"=X).^ x   _ o.1XeX7X4Xb.x.b.].|.3X}.}.}.}.|.].l.X.z.[./..X.X.X.X.Xc.U a           x ^ ).=X=X=X=X=X=X=X=X=X=X=X=X=X=X=X=X=X=X=X=X",
"=X).^ x   4 O.1X7X4X2Xb...g.z.v.{.{.{.{.{.~.z.x.a.h.k./.XX.X.X.X.Xc.P 2           x ^ ).=X=X=X=X=X=X=X=X=X=X=X=X=X=X=X=X=X=X=X=X",
"=X).^ x   x ' <X5X1Xb.x.,.0.c.c.Q.Q.Q.Q.Q.c.9.0.,.0.9.c.Q.Q.Q.Q.XX9.P <           x ^ ).=X=X=X=X=X=X=X=X=X=X=X=X=X=X=X=X=X=X=X=X",
"=X_.M.E x  .' o.<XO.X.{ G P 8.8.9.9.9.9.k.8.8.P G T 8.0.9.0.9.9.9.Y L i ; O o o   x ^ ).=X=X=X=X=X=X=X=X=X=X=X=X=X=X=X=X=X=X=X=X",
"=X`.).M.M. . .| ' ' ) f a s f G P P P P P M B s a s f G P P P P P L l k k t ; o   x ^ ).=X=X=X=X=X=X=X=X=X=X=X=X=X=X=X=X=X=X=X=X",
"=X*X`._.M.M. .) x 3 3 : : $ > % r & < < & > , , $ $ , & u & u 8 < i k l p.k r O   x ^ ).=X=X=X=X=X=X=X=X=X=X=X=X=X=X=X=X=X=X=X=X",
"=X=X=X=X=X).^ x   .                                               r k $.s.p.k r   x ^ ).=X=X=X=X=X=X=X=X=X=X=X=X=X=X=X=X=X=X=X=X",
"=X=X=X=X=X_.M.E x 1 # .   . o - , > , : : - o .               . X 6 k $.f.j y O   x ^ ).=X=X=X=X=X=X=X=X=X=X=X=X=X=X=X=X=X=X=X=X",
"=X=X=X=X=X`.).M.^ V x #   o : a f f f f f u : o           . X $ $ 9 s h >.g r $   x ^ ).=X=X=X=X=X=X=X=X=X=X=X=X=X=X=X=X=X=X=X=X",
"=X=X=X=X=X*X`._.).N.V 1   - u S U U U T } S u #           X # % 5 9 s s h y 6 o   x ^ ).=X=X=X=X=X=X=X=X=X=X=X=X=X=X=X=X=X=X=X=X",
"=X=X=X=X=X=X=X=X=X).^ x   - f { h.h.h.h.h.U S :           X % % 9 9 0 0 0 8 % X   x ^ ).=X=X=X=X=X=X=X=X=X=X=X=X=X=X=X=X=X=X=X=X",
"=X=X=X=X=X=X=X=X=X_.M.E x m A L T } } T { L A Z x x x x x x & & 5 5 8 % 8 8 & x x E M._.=X=X=X=X=X=X=X=X=X=X=X=X=X=X=X=X=X=X=X=X",
"=X=X=X=X=X=X=X=X=X`.).M.^ Q D A f f N N f A D Q ^ ^ ^ ^ ^ R n x % % $ $ $ & n R ^ M.).`.=X=X=X=X=X=X=X=X=X=X=X=X=X=X=X=X=X=X=X=X",
"=X=X=X=X=X=X=X=X=X*X`._.).B.Q m : : : $ > m Q N.).).).).).N.R & X X # X X x R N.)._.`.*X=X=X=X=X=X=X=X=X=X=X=X=X=X=X=X=X=X=X=X=X",
"=X=X=X=X=X=X=X=X=X=X=X=X=X).^ x           x ^ ).=X=X=X=X=X).^ x           x ^ ).=X=X=X=X=X=X=X=X=X=X=X=X=X=X=X=X=X=X=X=X=X=X=X=X",
"=X=X=X=X=X=X=X=X=X=X=X=X=X).^ x           x ^ ).=X=X=X=X=X).^ x           x ^ ).=X=X=X=X=X=X=X=X=X=X=X=X=X=X=X=X=X=X=X=X=X=X=X=X",
"=X=X=X=X=X=X=X=X=X=X=X=X=X).^ x           x ^ ).=X=X=X=X=X).^ x           x ^ ).=X=X=X=X=X=X=X=X=X=X=X=X=X=X=X=X=X=X=X=X=X=X=X=X",
"=X=X=X=X=X=X=X=X=X=X=X=X=X).^ x           x ^ ).=X=X=X=X=X).^ x           x ^ ).=X=X=X=X=X=X=X=X=X=X=X=X=X=X=X=X=X=X=X=X=X=X=X=X"
};
