/* XPM */
static char *char_right[] = {
/* columns rows colors chars-per-pixel */
"64 64 212 2 ",
"   c #151515",
".  c #1B1B1B",
"X  c #261E19",
"o  c #391D1D",
"O  c #351F19",
"+  c #1F2119",
"@  c #27291C",
"#  c #33261A",
"$  c #3C221A",
"%  c #362C1D",
"&  c #3E371D",
"*  c #242424",
"=  c #2B2B2B",
"-  c #2C2723",
";  c #3D2221",
":  c #342B23",
">  c #372825",
",  c #313820",
"<  c #3A3327",
"1  c #353535",
"2  c gray24",
"3  c #412E1A",
"4  c #48271E",
"5  c #4B3716",
"6  c #42321A",
"7  c #4A3A1C",
"8  c #50381A",
"9  c #5C381C",
"0  c #572C1E",
"q  c #6D321D",
"w  c #432C2A",
"e  c #4A2E2E",
"r  c #462B24",
"t  c #5D2525",
"y  c #592D29",
"u  c #4E3D25",
"i  c #43342A",
"p  c #4F3229",
"a  c #443927",
"s  c #5A3527",
"d  c #4E3333",
"f  c #473C31",
"g  c #543E31",
"h  c #583939",
"j  c #662B2A",
"k  c #663827",
"l  c #733827",
"z  c #793727",
"x  c #6A3232",
"c  c #633939",
"v  c #743B3B",
"b  c #783835",
"n  c #3C4525",
"m  c #52421C",
"M  c #694B1A",
"N  c #7A5B1E",
"B  c #7B4C1E",
"V  c #4D4921",
"C  c #4A4529",
"Z  c #5C4827",
"A  c #50422A",
"S  c #554625",
"D  c #4F5B2C",
"F  c #5B5525",
"G  c #594B31",
"H  c #54493A",
"J  c #525036",
"K  c #674A27",
"L  c #695328",
"P  c #745525",
"I  c #7B5B2B",
"U  c #664B37",
"Y  c #6B5836",
"T  c #76573B",
"R  c #734128",
"E  c #58602E",
"W  c #5A6931",
"Q  c #68692E",
"!  c #616233",
"~  c #6D6A38",
"^  c #637435",
"/  c #6C7B35",
"(  c #776D2D",
")  c #454545",
"_  c #4B4B4B",
"`  c #515151",
"'  c #595959",
"]  c #544F46",
"[  c #675A46",
"{  c #775A48",
"}  c #694D4D",
"|  c #5F6353",
" . c #636A43",
".. c #78674A",
"X. c #7F6E56",
"o. c gray38",
"O. c #696969",
"+. c #787368",
"@. c #757575",
"#. c #7B7B7B",
"$. c #706262",
"%. c #91391F",
"&. c #802C2C",
"*. c #873929",
"=. c #963F24",
"-. c #863232",
";. c #8D3937",
":. c #973D33",
">. c #A53535",
",. c #835A19",
"<. c #98691D",
"1. c #83621C",
"2. c #A16E1C",
"3. c #B87B19",
"4. c #855928",
"5. c #864636",
"6. c #944F30",
"7. c #A84834",
"8. c #B8583A",
"9. c #B14F2B",
"0. c #8C6322",
"q. c #8A6727",
"w. c #996B25",
"e. c #877C2A",
"r. c #857325",
"t. c #886636",
"y. c #836638",
"u. c #966A35",
"i. c #9D763C",
"p. c #927430",
"a. c #B86C2A",
"s. c #A57529",
"d. c #B97928",
"f. c #AA7A37",
"g. c #B16D2E",
"h. c #C57237",
"j. c #CE661F",
"k. c #964343",
"l. c #B84949",
"z. c #BB5743",
"x. c #A14941",
"c. c #866849",
"v. c #95684A",
"b. c #8A7140",
"n. c #85724E",
"m. c #827955",
"M. c #98784F",
"N. c #AD7848",
"B. c #887E6D",
"V. c #CC7143",
"C. c #74833A",
"Z. c #768B3C",
"A. c #7A893A",
"S. c #758841",
"D. c #BD811E",
"F. c #9C8B33",
"G. c #BF8220",
"H. c #BD8725",
"J. c #B5853D",
"K. c #AF9530",
"L. c #BFAF35",
"P. c #BDA22E",
"I. c #EE9D1A",
"U. c #E1871C",
"Y. c #CD8E2D",
"T. c #C28A37",
"R. c #CB9239",
"E. c #DC9C3C",
"W. c #CA8B33",
"Q. c #CAA837",
"!. c #F1AE23",
"~. c #F8E23F",
"^. c #F4C932",
"/. c #A99E4C",
"(. c #AC8A4D",
"). c #89A344",
"_. c #94AF48",
"`. c #9EBC4C",
"'. c #B0926B",
"]. c #C28E45",
"[. c #C89748",
"{. c #C59E56",
"}. c #D3934B",
"|. c #EAA849",
" X c #F9B756",
".X c #CB9969",
"XX c #E2A859",
"oX c #A7C750",
"OX c #B1D354",
"+X c #D0C046",
"@X c #FFCC6B",
"#X c #838383",
"$X c #8B8B8B",
"%X c #8B8484",
"&X c #959595",
"*X c #918D87",
"=X c #A6A6A6",
"-X c #ADADAD",
";X c #BEBEBD",
":X c #B4B4B4",
">X c #A6A199",
",X c #CBB282",
"<X c #EEBC84",
"1X c #F5D89D",
"2X c #C5C5C5",
"3X c #CBCBCB",
"4X c #D6D6D6",
"5X c #DDDDDD",
"6X c #E2E2E2",
"7X c #EBEBEB",
"8X c #F3F3F3",
"9X c #FEFEFE",
/* pixels */
"OXOXOXOXOXOXOXOXOXOXOXOXOXOXOXOXOXOXOXOXOXOXOXOXOXOXOXOXOX).^ n                           n ^ ).OXOXOXOXOXOXOXOXOXOXOXOXOXOXOXOX",
"OXOXOXOXOXOXOXOXOXOXOXOXOXOXOXOXOXOXOXOXOXoX`._.).).).).).A.Q F 5 5 m V V V V V V A V V V E C.A.)._.`.oXOXOXOXOXOXOXOXOXOXOXOXOX",
"OXOXOXOXOXOXOXOXOXOXOXOXOXOXOXOXOXOXOXOXOX`.).Z.^ ^ ^ ^ ^ Q ( N ,.1.r.r.e.e.e.e.e.e.e.e.e.C.( ( ^ Z.).`.OXOXOXOXOXOXOXOXOXOXOXOX",
"OXOXOXOXOXOXOXOXOXOXOXOXOXOXOXOXOXOXOXOXOX_.Z.W n n n n n F N <.3.D.H.P.L.L.L.L.L.L.L.L.Q.F.A.F n W Z._.OXOXOXOXOXOXOXOXOXOXOXOX",
"OXOXOXOXOXOXOXOXOXOXOXOXOXOXOXOXOXOXOXOXOX).^ n           5 ,.3.I.!.^.^.~.~.~.~.~.~.~.~.~.Q.e.V   n ^ ).OXOXOXOXOXOXOXOXOXOXOXOX",
"OXOXOXOXOXOXOXOXOXOXOXOXOXOXOXOXOXoX`._.).A.Q F 5 5 5 5 5 M ,.2.H.H.P.Q.+X+X+X+X+X+X+X+X+XF.Q C   n ^ ).OXOXOXOXOXOXOXOXOXOXOXOX",
"OXOXOXOXOXOXOXOXOXOXOXOXOXOXOXOXOX`.).A.^ Q ( N N ,.,.,.,.,.,.,.q.p.F.(././.K././././././.F.! <   n ^ ).OXOXOXOXOXOXOXOXOXOXOXOX",
"OXOXOXOXOXOXOXOXOXOXOXOXOXOXOXOXOX_.A.W n F ,.<.3.3.3.3.3.2.1.N Z Y ~ X.m.m.m.S.m.S.X.S.X.| C =   n ^ ).OXOXOXOXOXOXOXOXOXOXOXOX",
"OXOXOXOXOXOXOXOXOXOXOXOXOXOXOXOXOX).^ n   5 ,.3.I.I.I.I.I.G.0.Z = 1 ) ` ' ' ' ' ' ' ' ' ' _ 1 =   n ^ ).OXOXOXOXOXOXOXOXOXOXOXOX",
"OXOXOXOXOXOXOXOXOXOXOXOXOXoX`._.).A.Q F 5 M ,.2.D.D.D.D.G.w.I G 1 f ) ` ' ' ' ' ' ' ' ` ' ) 1 *   n ^ ).OXOXOXOXOXOXOXOXOXOXOXOX",
"OXOXOXOXOXOXOXOXOXOXOXOXOX`.).Z.^ Q N N ,.,.1.1.0.0.0.0.0.I U H ) _ ` ` ' ' ' ' ' ' ' ' ' _ 1 *   n ^ ).OXOXOXOXOXOXOXOXOXOXOXOX",
"OXOXOXOXOXOXOXOXOXOXOXOXOX_.Z.W n F N <.D.<.1.N Z Z Z Z Z G H _ ` ` ` ` ' ' ' ' ' ' ' ' ' ` 1 *   n ^ ).OXOXOXOXOXOXOXOXOXOXOXOX",
"OXOXOXOXOXOXOXOXOXOXOXOXOX).^ n   5 ,.3.I.D.0.Z = = = = = 1 2 ` ` ' ' ' ' ' ' ' ' ' ' ' ' ) 1 =   n ^ ).OXOXOXOXOXOXOXOXOXOXOXOX",
"OXOXOXOXOXOXOXOXOXoX`._.).C.! S $ 9 N 2.D.w.P A = = = = = 1 2 ) ` ` ` ` ' ' ' ' ' ' ' ' ' _ 1 *   n ^ ).OXOXOXOXOXOXOXOXOXOXOXOX",
"OXOXOXOXOXOXOXOXOX`.).Z.^ ! K k q q B ,.0.P Z a = = = = = 1 1 2 2 ) ` ` ' ' ' ' ' ' ' ' ' _ 1 =   n ^ ).OXOXOXOXOXOXOXOXOXOXOXOX",
"OXOXOXOXOXOXOXOXOX_.A.W n m k B %.*.z K Z A a < = = = = = = 1 1 1 ) ) ` ' ' ' ' ' ' ' ' ' ) 1 *   n ^ ).OXOXOXOXOXOXOXOXOXOXOXOX",
"OXOXOXOXOXOXOXOXOX).^ n   $ q %.9.%.l p - = = = = = = = = = = = = 1 ) _ ' ' ' ' ' ' ' ' ' ) 1 *   n ^ ).OXOXOXOXOXOXOXOXOXOXOXOX",
"OXOXOXOXOXOXOXOXOX).^ n   o 0 z %.%.l s p w < - * 1 ) ` o.o.o.' o.' ` ` ) ` [ ..c...{ } { ] f -   n ^ ).OXOXOXOXOXOXOXOXOXOXOXOX",
"OXOXOXOXOXOXOXOXOX).^ n   X 4 y l l l l l 0 r > . 2 o.#.&X&X&X&X&XS.o.` 1 H Y t.f.i.u.v.k.c p #   n ^ ).OXOXOXOXOXOXOXOXOXOXOXOX",
"OXOXOXOXOXOXOXOXOX).^ n   X # > p k l *.=.z y $ . ) @.&X3X3X3X3X3X-X#.` * A P s.Y.d.d.9.7.R 0 o   n ^ ).OXOXOXOXOXOXOXOXOXOXOXOX",
"OXOXOXOXOXOXOXOXOX).^ n     * * = p l 6.9.%.q $   ` %X2X9X9X9X9X9X2X%X`   5 ,.3.I.U.j.j.>.%.q 4   n ^ ).OXOXOXOXOXOXOXOXOXOXOXOX",
"OXOXOXOXOXoX`._.).C.D ,   . * * = r j l %.*.0 O . ) @.&X2X4X5X8X9X4X=X#.] [ t.w.3.3.h.h.V.7.R r   n ^ ).OXOXOXOXOXOXOXOXOXOXOXOX",
"OXOXOXOXOX`.).Z.^ D n @   . * * = < p k l k 4 # * 2 ` @.%X=X2X6X9X6X2X=X$XB.n.t.,.w.f.].XXN.T a   n ^ ).OXOXOXOXOXOXOXOXOXOXOXOX",
"OXOXOXOXOX_.Z.W n , @ .   . * * = > w r e i > : * = 2 ) ` #.=X4X9X7X6X4X2X>XB.[ 4 T M..X<X'.c.f   n ^ ).OXOXOXOXOXOXOXOXOXOXOXOX",
"OXOXOXOXOX).^ n           . * * = = = = = = = = = * * .   ` $X2X9X9X9X9X9X2X$X`   H m.,X1X,XB.H   n ^ ).OXOXOXOXOXOXOXOXOXOXOXOX",
"OXoX`._.).C.E A o o o o ; ; ; w e e d d d d d d d e > X   _ #X;X8X8X9X9X9X2X$X`   H m.'.1X,XX.A   n ^ ).OXOXOXOXOXOXOXOXOXOXOXOX",
"OX`.).Z.^ Y U k t t t t t t j j x x x v { b b } v h w X   _ #X:X7X8X8X9X9X2X$X_   f ..'.,X'.$.f   n ^ ).OXOXOXOXOXOXOXOXOXOXOXOX",
"OX_.Z.W n u s j &.&.&.z &.&.&.-.-.;.;.k.k.k.k.k.k.v y o   _ #.-X6X7X8X8X9X2X$X`   1 [ M.'.M.[ i   n ^ ).OXOXOXOXOXOXOXOXOXOXOXOX",
"OX).^ n   O t z >.>.>.>.>.>.>.>.>.>.l.l.l.l.l.l.l.k.x ;   ) @.=X4X6X7X8X9X2X$X`   < U c.'.n.U <   n ^ ).OXOXOXOXOXOXOXOXOXOXOXOX",
"OX_.Z.W n u k k &.&.&.z &.-.7.7.8.z.z.z.z.z.l.l.l.;.x ;   ) #.=X4X6X7X7X8X;X#X_   i [ M..XM.Y i   n ^ ).OXOXOXOXOXOXOXOXOXOXOXOX",
"OX`.).Z.^ Y F s t t t t t z 6.z.V.h.h.h.h.8.z.8.l.;.j ;   ) @.=X4X5X6X6X7X:X#X_   a { N..X(.T a   n ^ ).OXOXOXOXOXOXOXOXOXOXOXOX",
"OXoX`._.).C.Y C o o o o o j 6.N.XX}.V.h.h.j.8.7.>.-.t o   ) @.=X4X4X5X6X6X-X#.)   A ..(.@X(.( V   n ^ ).OXOXOXOXOXOXOXOXOXOXOXOX",
"OXOXOXOXOX).^ n           u u.(. X|.E.Y.3.a.9.7.>.z t ;   ) #.=X4X4X4X4X4X=X#.)   A b.{.@X{.y.A   n ^ ).OXOXOXOXOXOXOXOXOXOXOXOX",
"OXOXOXOXOX_.Z.W n n n n n Y ( N.].J.T.H.3.a.<.6.&.v c h _ O.$X:X4X3X2X:X=X*X+.[ C Y b.(.{.M.Y a   , D C.).).).).)._.`.oXOXOXOXOX",
"OXOXOXOXOX`.).Z.^ ^ ^ ^ ^ ~ ( ( t.w.s.d.G.a.,.z t c } $.@.$X=X;X5X;X=X$X@.@.m.n.b.b.b.b.p.Y C :   @ n D ^ ^ ^ ^ ^ S.).`.OXOXOXOX",
"OXOXOXOXOXoX`._.).).).).).Z.~ F u L 0.2.D.<.B 9 o h $.%X=X:X;X3X4X:X$XO.) } m.(.{.(.b.Y C i : @   + @ , n n n , n W S._.OXOXOXOX",
"OXOXOXOXOXOXOXOXOXOXOXOXOX).^ n   & M <.W.<.M 3   ) @.=X4X5X4X4X4X=X@.)   A b.{.@X{.y.C                           n ^ ).OXOXOXOX",
"OXOXOXOXOXOXOXOXOXOXOXOXOX_.Z.W C V M N <.N 8 % . 2 o.#X=X=X=X=X=X*X+.[ u I N.{. X{.F.T u < : X   * 1 n ` 2 1 *   n ^ ).OXOXOXOX",
"OXOXOXOXOXOXOXOXOXOXOXOXOX`.).S.^ Q Q M M m r > . 1 _ o.#.@.@.#.@.+.X.c.y.i.J.R.|.R.(.f.t.L u #   1 _ O.#XO._ 1   n ^ ).OXOXOXOX",
"OXOXOXOXOXOXOXOXOXOXOXOXOXoX`._.).A.^ V 6 % # * = 1 1 2 ) ) ) ) ) [ ..N.].].P.R.R.Y.R.].].u.L r   2 O.&X;X&XO.2   n ^ ).OXOXOXOX",
"OXOXOXOXOXOXOXOXOXOXOXOXOXOXOXOXOX).^ n   . . * = * * .           u t.]. X|.E.Y.H.Y.E.|. X].t.u   _ #X;X8X;X#X_   n ^ ).OXOXOXOX",
"OXOXOXOXOXOXOXOXOXOXOXOXOXOXOXOXOX).^ n   . + = = * * . . . . . . u t.J.|.E.T.d.w.J.T.|. X].t.u   ) #.-X6X-X#.)   n ^ ).OXOXOXOX",
"OXOXOXOXOXOXOXOXOXOXOXOXOXOXOXOXOX).^ n   . * * = = * * * * . . * u I f.E.T.f.q.P u.J.}. X].t.u   ) @.=X4X=X@.)   n ^ ).OXOXOXOX",
"OXOXOXOXOXOXOXOXOXOXOXOXOXOXOXOXOX).^ n   . * * = = = * * * * = * A I s.Y.d.q.L A y.F.}. X].t.u   2 O.$X;X$XO.2   n ^ ).OXOXOXOX",
"OXOXOXOXOXOXOXOXOXOXOXOXOXOXOXOXOX).^ n   . . * = = = = = = = = = A B <.G.w.P A = U i.]. X].t.u   1 o.#X-X#Xo.2   n ^ ).OXOXOXOX",
"OXOXOXOXOXOXOXOXOXOXOXOXOXOXOXOXOX).^ n   X > 1 d e d e e e e y p k 5.<.a.<.P a * G u.(.|.J.I u   1 _ O.#XO.| D n W Z._.OXOXOXOX",
"OXOXOXOXOXOXOXOXOXOXOXOXOXOXOXOXOX).^ n   - w y v v x x j x j x x z 5.6.9.6.k r + u I f.E.f.P 7   = 1 ` o.o. . .^ Z.).`.OXOXOXOX",
"OXOXOXOXOXOXOXOXOXOXOXOXOXOXOXOXOX).^ <   ; y v k.k.k.;.-.-.-.-.-.;.:.7.9.*.k $ . 7 P s.Y.s.P 6   . * 1 n ]  .S.)._.`.oXOXOXOXOX",
"OXOXOXOXOXOXOXOXOXOXOXOXOXOXOXOXOX).^ n   r x k.l.l.l.>.>.>.>.>.>.>.>.>.>.&.t o   3 M <.d.<.M 3           n C.Z.OXOXOXOXOXOXOXOX",
"OXOXOXOXOXOXOXOXOXOXOXOXOXOXOXOXOX).^ n   o y b x.7.:.;.*.-.-.&.&.&.&.z &.j t r > u P u.d.0.M 3   + @ , n W Z._.OXOXOXOXOXOXOXOX",
"OXOXOXOXOXOXOXOXOXOXOXOXOXOXOXOXOX).^ n   # r k 5.R *.b z z q t t t t t j t y g g U 4.u.f.4.K %   @ n D C.Z.Z.oXOXOXOXOXOXOXOXOX",
"OXOXOXOXOXOXOXOXOXOXOXOXOXOXOXOXOX).^ n   X r y R R k k 9 0 0 3 o o o o o w p U T y.c.u.v.T g %   n n C.Z.`.oXOXOXOXOXOXOXOXOXOX",
"OXOXOXOXOXOXOXOXOXOXOXOXOXOXOXOXOX).^ n   # # & 8 8 5 5 8 5 # +           > g { v.v.v.v.v.[ g :   n ^ Z.OXOXOXOXOXOXOXOXOXOXOXOX",
"OXOXOXOXOXOXOXOXOXOXOXOXOXOXOXOXOX_.Z.W n , & & 3 3 6 $ 3 & & n < n n n n C G U } T T } { U G C n W Z._.OXOXOXOXOXOXOXOXOXOXOXOX",
"OXOXOXOXOXOXOXOXOXOXOXOXOXOXOXOXOX`.).Z.^ D V 7 # # # # # & V E ^ ^ ^ ^ ^ ! E G g g y g A H W W ^ Z.).`.OXOXOXOXOXOXOXOXOXOXOXOX",
"OXOXOXOXOXOXOXOXOXOXOXOXOXOXOXOXOXoX`._.).C.D n @ X X X X & E C.).).).).).S.! C : : > > 1 n W Z.Z.`.oXoXOXOXOXOXOXOXOXOXOXOXOXOX",
"OXOXOXOXOXOXOXOXOXOXOXOXOXOXOXOXOXOXOXOXOX).^ n           n ^ ).OXOXOXOXOX).^ n           n C.Z.OXOXOXOXOXOXOXOXOXOXOXOXOXOXOXOX",
"OXOXOXOXOXOXOXOXOXOXOXOXOXOXOXOXOXOXOXOXOX_.Z.W n n n n n W Z._.OXOXOXOXOX_.Z.W n n n n n W Z._.OXOXOXOXOXOXOXOXOXOXOXOXOXOXOXOX",
"OXOXOXOXOXOXOXOXOXOXOXOXOXOXOXOXOXOXOXOXOX`.).Z.^ ^ ^ ^ ^ Z.).`.OXOXOXOXOX`.).Z.S.C.C.Z.C.Z.Z.`.OXOXOXOXOXOXOXOXOXOXOXOXOXOXOXOX",
"OXOXOXOXOXOXOXOXOXOXOXOXOXOXOXOXOXOXOXOXOXoX`._.).).).).)._.`.oXOXOXOXOXOXoX`._.Z._.Z.Z.Z._.oXOXOXOXOXOXOXOXOXOXOXOXOXOXOXOXOXOX",
"OXOXOXOXOXOXOXOXOXOXOXOXOXOXOXOXOXOXOXOXOXOXOXOXOXOXOXOXOXOXOXOXOXOXOXOXOXOXOXOXOXOXOXOXOXOXOXOXOXOXOXOXOXOXOXOXOXOXOXOXOXOXOXOX",
"OXOXOXOXOXOXOXOXOXOXOXOXOXOXOXOXOXOXOXOXOXOXOXOXOXOXOXOXOXOXOXOXOXOXOXOXOXOXOXOXOXOXOXOXOXOXOXOXOXOXOXOXOXOXOXOXOXOXOXOXOXOXOXOX",
"OXOXOXOXOXOXOXOXOXOXOXOXOXOXOXOXOXOXOXOXOXOXOXOXOXOXOXOXOXOXOXOXOXOXOXOXOXOXOXOXOXOXOXOXOXOXOXOXOXOXOXOXOXOXOXOXOXOXOXOXOXOXOXOX",
"OXOXOXOXOXOXOXOXOXOXOXOXOXOXOXOXOXOXOXOXOXOXOXOXOXOXOXOXOXOXOXOXOXOXOXOXOXOXOXOXOXOXOXOXOXOXOXOXOXOXOXOXOXOXOXOXOXOXOXOXOXOXOXOX"
};
