/* XPM */
static char *Gangblanc_left_crouch[] = {
/* columns rows colors chars-per-pixel */
"16 16 20 1 ",
"  c None",
". c gray9",
"X c #2C2C2C",
"o c gray35",
"O c #767676",
"+ c #A43434",
"@ c #835835",
"# c #BA4523",
"$ c #BC4E4E",
"% c #BF8221",
"& c #ED9D1C",
"* c #BC8B4D",
"= c #B08561",
"- c #FAB656",
"; c #E2AD6E",
": c #F7E240",
"> c #FFCC6B",
", c gray66",
"< c #FFE4A5",
"1 c #F4F4F4",
/* pixels */
"                ",
"    ....        ",
"   .:::&..      ",
"   .oooX&&.     ",
"   .ooooXX&.    ",
"   .oooXXXX#.   ",
"   .#&&&&&#X.   ",
"   .<>>XXXXX..  ",
"   .=.=+:$$+++. ",
"   .><%<=+%-..  ",
" .........%.    ",
" .1O,,O;;..     ",
" .,@**@**..     ",
"  .......$.     ",
"    ......      ",
"                "
};
