/* XPM */
static char *Gangblanc_walk2[] = {
/* columns rows colors chars-per-pixel */
"16 16 22 1 ",
"  c None",
". c gray9",
"X c #2C2C2C",
"o c gray35",
"O c #767676",
"+ c #A43434",
"@ c #BA4523",
"# c #BC4E4E",
"$ c #93674D",
"% c #BF8221",
"& c #ED9D1C",
"* c #B08561",
"= c #E5A344",
"- c #FAB656",
"; c #E2AD6E",
": c #F7E240",
"> c #FFCC6B",
", c gray66",
"< c #FFE4A5",
"1 c #D7D7D7",
"2 c #F4F4F4",
"3 c white",
/* pixels */
"      ....      ",
"     .::::.     ",
"    .&XooX&.    ",
"   .&oooooo&.   ",
"  .@XXooooXX@.  ",
"  .XX++##++XX.  ",
" .33++XX<>++..  ",
".33.:XX**.*:.   ",
".31..%<>><%...  ",
".11.&=>..>-;,;. ",
" .11X=%=-%-222. ",
"  ..X%X=-X%,O,. ",
"    .+#%%#+,O,. ",
"    .$$.......  ",
"     ..         ",
"                "
};
