/* XPM */
static char *Gangblanc_back_crouch[] = {
/* columns rows colors chars-per-pixel */
"16 16 17 1 ",
"  c None",
". c gray9",
"X c #2C2C2C",
"o c gray35",
"O c #A43434",
"+ c #BA4523",
"@ c #BC4E4E",
"# c #BF8221",
"$ c #ED9D1C",
"% c #BC8B4D",
"& c #E5A344",
"* c #FAB656",
"= c #E2AD6E",
"- c #F7E240",
"; c gray66",
": c #D7D7D7",
"> c white",
/* pixels */
"                ",
"      ....      ",
"     .----.     ",
"   ..$XooX$.    ",
"   .$oooooo$.   ",
"  .+XXooooXX+.  ",
" ..OX+$$$$+XO.  ",
" .;.OXXXXXXO>>. ",
" .=.-OXXXXO-.>>.",
" .=..#O@@O#..:>.",
" .=-$&O&*O#$.::.",
" .%XXXO&#OXX::. ",
"  ..XXXXXXXX..  ",
"    .O@@@@O.    ",
"     ......     ",
"                "
};
